<svg id="svg" version="1.1" xmlns="http://www.w3.org/2000/svg" xmlns:xlink="http://www.w3.org/1999/xlink" width="400" height="209.69162995594712" viewBox="0, 0, 400,209.69162995594712"><g id="svgg"><path id="path0" d="M287.669 91.505 C 287.614 91.649,287.594 108.285,287.623 128.474 L 287.677 165.181 292.554 165.237 L 297.431 165.294 297.431 156.085 C 297.431 147.053,297.439 146.874,297.850 146.767 C 298.101 146.701,298.270 146.481,298.270 146.218 C 298.270 145.919,298.403 145.779,298.689 145.779 C 298.969 145.779,299.109 145.639,299.109 145.359 C 299.109 145.080,299.248 144.940,299.528 144.940 C 299.808 144.940,299.948 144.800,299.948 144.520 C 299.948 144.241,300.087 144.101,300.367 144.101 C 300.647 144.101,300.787 143.961,300.787 143.681 C 300.787 143.374,300.926 143.262,301.311 143.262 C 301.696 143.262,301.835 143.374,301.835 143.681 C 301.835 143.961,301.975 144.101,302.255 144.101 C 302.535 144.101,302.674 144.241,302.674 144.520 C 302.674 144.800,302.814 144.940,303.094 144.940 C 303.436 144.940,303.513 145.080,303.513 145.693 C 303.513 146.271,303.612 146.473,303.933 146.557 C 304.174 146.620,304.352 146.843,304.352 147.081 C 304.352 147.316,304.530 147.542,304.760 147.603 C 304.997 147.665,305.223 147.964,305.301 148.319 C 305.375 148.654,305.616 149.025,305.838 149.144 C 306.059 149.262,306.240 149.545,306.240 149.771 C 306.240 150.044,306.383 150.184,306.660 150.184 C 306.946 150.184,307.079 150.323,307.079 150.623 C 307.079 150.885,307.248 151.106,307.499 151.172 C 307.793 151.249,307.918 151.458,307.918 151.874 C 307.918 152.207,308.086 152.587,308.299 152.741 C 308.509 152.892,308.742 153.180,308.817 153.382 C 308.892 153.584,309.098 153.749,309.275 153.749 C 309.452 153.749,309.596 153.878,309.596 154.035 C 309.596 154.191,309.832 154.497,310.121 154.714 C 310.466 154.973,310.645 155.312,310.645 155.707 C 310.645 156.129,310.769 156.338,311.064 156.415 C 311.297 156.476,311.484 156.701,311.484 156.920 C 311.484 157.175,311.633 157.315,311.904 157.315 C 312.211 157.315,312.323 157.455,312.323 157.840 C 312.323 158.128,312.512 158.553,312.743 158.783 C 312.973 159.014,313.162 159.345,313.162 159.518 C 313.162 159.691,313.306 159.832,313.481 159.832 C 313.657 159.832,313.908 160.068,314.039 160.357 C 314.171 160.645,314.452 160.881,314.664 160.881 C 314.967 160.881,315.050 161.043,315.050 161.635 C 315.050 162.212,315.148 162.414,315.469 162.498 C 315.702 162.559,315.889 162.784,315.889 163.003 C 315.889 163.258,316.037 163.398,316.308 163.398 C 316.608 163.398,316.728 163.538,316.728 163.886 C 316.728 165.246,317.071 165.310,324.030 165.242 C 328.517 165.199,330.413 165.110,330.588 164.934 C 330.911 164.610,330.658 163.608,330.253 163.608 C 330.078 163.608,329.942 163.417,329.942 163.169 C 329.942 162.906,329.774 162.685,329.523 162.620 C 329.291 162.559,329.103 162.334,329.103 162.115 C 329.103 161.860,328.955 161.720,328.684 161.720 C 328.401 161.720,328.264 161.580,328.264 161.291 C 328.264 161.055,328.028 160.626,327.740 160.338 C 327.451 160.049,327.216 159.687,327.216 159.532 C 327.216 159.378,327.027 159.202,326.796 159.142 C 326.545 159.077,326.377 158.856,326.377 158.593 C 326.377 158.303,326.243 158.154,325.980 158.154 C 325.696 158.154,325.546 157.953,325.450 157.440 C 325.377 157.048,325.177 156.673,325.007 156.608 C 324.837 156.543,324.698 156.298,324.698 156.063 C 324.698 155.777,324.561 155.637,324.279 155.637 C 324.001 155.637,323.859 155.497,323.859 155.222 C 323.859 154.953,323.674 154.759,323.335 154.674 C 323.017 154.595,322.811 154.393,322.811 154.163 C 322.811 153.559,322.580 153.120,322.264 153.120 C 322.092 153.120,321.972 152.904,321.972 152.596 C 321.972 152.211,321.860 152.071,321.552 152.071 C 321.273 152.071,321.133 151.931,321.133 151.652 C 321.133 151.372,320.993 151.232,320.713 151.232 C 320.406 151.232,320.294 151.092,320.294 150.708 C 320.294 150.420,320.114 150.004,319.895 149.785 C 319.676 149.565,319.433 149.188,319.356 148.946 C 319.278 148.699,319.039 148.506,318.811 148.506 C 318.546 148.506,318.406 148.361,318.406 148.086 C 318.406 147.806,318.266 147.666,317.986 147.666 C 317.679 147.666,317.567 147.527,317.567 147.142 C 317.567 146.854,317.378 146.429,317.147 146.198 C 316.917 145.967,316.728 145.628,316.728 145.444 C 316.728 145.261,316.539 145.061,316.308 145.000 C 316.076 144.940,315.889 144.714,315.889 144.496 C 315.889 144.241,315.740 144.101,315.469 144.101 C 315.187 144.101,315.050 143.961,315.050 143.672 C 315.050 143.436,314.814 143.007,314.525 142.718 C 314.237 142.430,314.001 142.063,314.001 141.903 C 314.001 141.743,313.812 141.552,313.582 141.479 C 313.351 141.406,313.162 141.163,313.162 140.940 C 313.162 140.675,313.017 140.535,312.743 140.535 C 312.477 140.535,312.323 140.395,312.323 140.155 C 312.323 139.946,312.134 139.572,311.904 139.325 C 311.673 139.077,311.484 138.720,311.484 138.531 C 311.484 138.343,311.301 138.140,311.076 138.082 C 310.852 138.023,310.640 137.772,310.604 137.525 C 310.564 137.242,310.364 137.049,310.068 137.007 C 309.484 136.924,309.339 135.291,309.916 135.291 C 310.092 135.291,310.326 135.055,310.435 134.767 C 310.545 134.478,310.772 134.242,310.940 134.242 C 311.108 134.242,311.306 134.053,311.379 133.823 C 311.452 133.592,311.632 133.403,311.779 133.403 C 311.926 133.403,312.153 133.167,312.285 132.879 C 312.416 132.590,312.620 132.354,312.738 132.354 C 312.856 132.354,312.952 132.209,312.952 132.030 C 312.952 131.852,313.188 131.470,313.477 131.182 C 313.765 130.893,314.001 130.520,314.001 130.352 C 314.001 130.182,314.196 130.047,314.440 130.047 C 314.700 130.047,314.923 129.879,314.987 129.635 C 315.047 129.408,315.274 129.165,315.492 129.096 C 315.710 129.027,315.889 128.788,315.889 128.565 C 315.889 128.299,316.034 128.159,316.308 128.159 C 316.588 128.159,316.728 128.020,316.728 127.740 C 316.728 127.460,316.868 127.320,317.147 127.320 C 317.427 127.320,317.567 127.181,317.567 126.901 C 317.567 126.621,317.707 126.481,317.986 126.481 C 318.261 126.481,318.406 126.342,318.406 126.076 C 318.406 125.816,318.575 125.648,318.878 125.605 C 319.181 125.561,319.374 125.369,319.417 125.066 C 319.460 124.762,319.629 124.594,319.889 124.594 C 320.154 124.594,320.294 124.449,320.294 124.174 C 320.294 123.894,320.433 123.755,320.713 123.755 C 320.993 123.755,321.133 123.615,321.133 123.335 C 321.133 123.055,321.273 122.916,321.552 122.916 C 321.832 122.916,321.972 122.776,321.972 122.496 C 321.972 122.216,322.112 122.077,322.391 122.077 C 322.662 122.077,322.811 121.937,322.811 121.682 C 322.811 121.458,323.000 121.237,323.246 121.173 C 323.485 121.110,323.730 120.872,323.790 120.643 C 323.849 120.415,324.078 120.180,324.298 120.123 C 324.518 120.065,324.698 119.879,324.698 119.708 C 324.698 119.538,324.887 119.349,325.118 119.289 C 325.349 119.229,325.537 119.029,325.537 118.845 C 325.537 118.661,325.681 118.511,325.857 118.511 C 326.033 118.511,326.262 118.288,326.366 118.015 C 326.469 117.742,326.703 117.462,326.885 117.392 C 327.067 117.323,327.216 117.144,327.216 116.995 C 327.216 116.846,327.404 116.606,327.635 116.462 C 328.184 116.119,328.167 115.677,327.588 115.271 C 327.193 114.994,326.214 114.945,321.133 114.945 C 314.548 114.945,314.376 114.976,314.106 116.204 C 314.011 116.636,313.842 116.833,313.565 116.833 C 313.302 116.833,313.162 116.978,313.162 117.252 C 313.162 117.532,313.022 117.672,312.743 117.672 C 312.463 117.672,312.323 117.812,312.323 118.091 C 312.323 118.371,312.183 118.511,311.904 118.511 C 311.629 118.511,311.484 118.651,311.484 118.916 C 311.484 119.139,311.295 119.381,311.064 119.455 C 310.834 119.528,310.645 119.770,310.645 119.993 C 310.645 120.259,310.500 120.399,310.225 120.399 C 309.977 120.399,309.806 120.538,309.806 120.742 C 309.806 120.930,309.570 121.303,309.282 121.571 C 308.993 121.838,308.757 122.250,308.757 122.486 C 308.757 122.776,308.621 122.916,308.338 122.916 C 308.067 122.916,307.918 123.055,307.918 123.311 C 307.918 123.529,307.731 123.755,307.499 123.815 C 307.248 123.881,307.079 124.101,307.079 124.364 C 307.079 124.664,306.946 124.803,306.660 124.803 C 306.380 124.803,306.240 124.943,306.240 125.223 C 306.240 125.503,306.100 125.642,305.821 125.642 C 305.541 125.642,305.401 125.782,305.401 126.062 C 305.401 126.293,305.263 126.481,305.094 126.481 C 304.925 126.481,304.682 126.677,304.554 126.917 C 304.425 127.156,304.139 127.534,303.917 127.756 C 303.695 127.978,303.513 128.395,303.513 128.684 C 303.513 129.068,303.402 129.208,303.094 129.208 C 302.814 129.208,302.674 129.348,302.674 129.628 C 302.674 129.907,302.535 130.047,302.255 130.047 C 301.975 130.047,301.835 130.187,301.835 130.467 C 301.835 130.746,301.696 130.886,301.416 130.886 C 301.136 130.886,300.996 131.026,300.996 131.306 C 300.996 131.584,300.856 131.725,300.581 131.725 C 300.313 131.725,300.119 131.911,300.034 132.250 C 299.961 132.538,299.772 132.774,299.613 132.774 C 299.437 132.774,299.270 133.104,299.189 133.613 C 299.088 134.245,298.958 134.452,298.662 134.452 C 298.409 134.452,298.270 134.601,298.270 134.872 C 298.270 135.151,298.130 135.291,297.850 135.291 C 297.433 135.291,297.431 135.151,297.431 113.267 L 297.431 91.243 292.600 91.243 C 288.928 91.243,287.745 91.306,287.669 91.505 M76.290 95.228 C 76.191 95.604,76.003 95.648,74.482 95.648 C 72.924 95.648,72.784 95.682,72.784 96.067 C 72.784 96.441,72.645 96.487,71.506 96.487 C 70.405 96.487,70.213 96.545,70.118 96.906 C 70.033 97.235,69.832 97.326,69.194 97.326 C 68.535 97.326,68.380 97.401,68.380 97.723 C 68.380 98.175,67.989 98.374,67.104 98.374 C 66.632 98.374,66.492 98.470,66.492 98.794 C 66.492 99.144,66.352 99.213,65.653 99.213 C 64.954 99.213,64.814 99.283,64.814 99.633 C 64.814 99.941,64.674 100.052,64.289 100.052 C 64.001 100.052,63.576 100.241,63.346 100.472 C 63.115 100.703,62.776 100.891,62.592 100.891 C 62.408 100.891,62.208 101.080,62.148 101.311 C 62.087 101.543,61.862 101.730,61.643 101.730 C 61.362 101.730,61.248 101.881,61.248 102.255 C 61.248 102.639,61.136 102.779,60.829 102.779 C 60.549 102.779,60.409 102.919,60.409 103.199 C 60.409 103.461,60.269 103.618,60.036 103.618 C 59.831 103.618,59.527 103.807,59.360 104.038 C 59.194 104.268,58.937 104.457,58.790 104.457 C 58.642 104.457,58.521 104.608,58.521 104.792 C 58.521 104.975,58.332 105.175,58.102 105.236 C 57.870 105.296,57.682 105.522,57.682 105.740 C 57.682 105.995,57.534 106.135,57.263 106.135 C 56.955 106.135,56.843 106.275,56.843 106.660 C 56.843 107.044,56.731 107.184,56.424 107.184 C 56.144 107.184,56.004 107.324,56.004 107.604 C 56.004 107.883,55.864 108.023,55.585 108.023 C 55.259 108.023,55.165 108.163,55.165 108.647 C 55.165 109.082,55.006 109.376,54.641 109.616 C 54.352 109.804,54.116 110.083,54.116 110.235 C 54.116 110.387,53.928 110.572,53.697 110.645 C 53.371 110.748,53.277 110.962,53.277 111.603 C 53.277 112.288,53.206 112.428,52.858 112.428 C 52.510 112.428,52.438 112.568,52.438 113.242 C 52.438 113.881,52.348 114.081,52.019 114.167 C 51.691 114.253,51.599 114.453,51.599 115.088 C 51.599 115.641,51.465 116.015,51.180 116.260 C 50.871 116.524,50.759 116.881,50.757 117.617 C 50.754 118.405,50.643 118.720,50.232 119.110 C 49.765 119.553,49.712 119.770,49.712 121.235 C 49.712 122.690,49.666 122.879,49.292 122.976 C 48.643 123.146,48.633 139.085,49.283 139.540 C 49.620 139.776,49.703 140.121,49.754 141.492 C 49.812 143.037,49.850 143.162,50.288 143.224 C 50.717 143.285,50.760 143.404,50.760 144.535 C 50.760 145.639,50.808 145.779,51.180 145.779 C 51.553 145.779,51.599 145.919,51.599 147.057 C 51.599 148.159,51.657 148.350,52.019 148.445 C 52.348 148.531,52.438 148.731,52.438 149.369 C 52.438 150.025,52.515 150.184,52.831 150.184 C 53.127 150.184,53.257 150.390,53.358 151.023 C 53.441 151.544,53.605 151.862,53.790 151.862 C 53.953 151.862,54.117 152.074,54.154 152.334 C 54.197 152.637,54.390 152.829,54.693 152.872 C 55.035 152.921,55.165 153.080,55.165 153.451 C 55.165 153.733,55.354 154.125,55.585 154.322 C 55.815 154.520,56.004 154.849,56.004 155.054 C 56.004 155.288,56.162 155.427,56.424 155.427 C 56.710 155.427,56.843 155.567,56.843 155.867 C 56.843 156.122,57.010 156.349,57.243 156.410 C 57.463 156.468,57.691 156.695,57.748 156.915 C 57.806 157.135,57.992 157.315,58.163 157.315 C 58.333 157.315,58.522 157.504,58.582 157.735 C 58.648 157.986,58.868 158.154,59.131 158.154 C 59.430 158.154,59.570 158.288,59.570 158.574 C 59.570 158.845,59.710 158.993,59.965 158.993 C 60.182 158.993,60.408 159.176,60.466 159.399 C 60.536 159.666,60.831 159.853,61.330 159.947 C 61.775 160.030,62.087 160.211,62.087 160.385 C 62.087 160.548,62.323 160.771,62.611 160.881 C 62.900 160.991,63.136 161.224,63.136 161.400 C 63.136 161.633,63.363 161.720,63.975 161.720 C 64.674 161.720,64.814 161.790,64.814 162.139 C 64.814 162.489,64.954 162.559,65.653 162.559 C 66.352 162.559,66.492 162.629,66.492 162.979 C 66.492 163.336,66.632 163.398,67.436 163.398 C 68.219 163.398,68.380 163.465,68.380 163.791 C 68.380 164.197,69.091 164.447,70.243 164.447 C 70.569 164.447,70.903 164.619,71.058 164.866 C 71.281 165.224,71.547 165.286,72.867 165.286 C 74.237 165.286,74.426 165.334,74.523 165.705 C 74.631 166.117,74.809 166.125,84.531 166.125 C 94.252 166.125,94.430 166.117,94.538 165.705 C 94.637 165.328,94.824 165.286,96.406 165.286 C 98.025 165.286,98.165 165.252,98.165 164.866 C 98.165 164.495,98.304 164.447,99.393 164.447 C 100.412 164.447,100.717 164.358,101.186 163.922 C 101.497 163.634,101.936 163.398,102.161 163.398 C 102.539 163.398,102.569 163.240,102.569 161.300 C 102.569 159.343,102.542 159.203,102.150 159.203 C 101.765 159.203,101.730 159.063,101.730 157.505 C 101.730 156.000,101.684 155.795,101.323 155.701 C 101.099 155.642,100.886 155.392,100.851 155.144 C 100.734 154.324,98.165 154.399,98.165 155.222 C 98.165 155.590,98.021 155.637,96.906 155.637 C 95.927 155.637,95.554 155.730,95.228 156.057 C 94.874 156.410,94.529 156.476,93.026 156.476 C 91.383 156.476,91.243 156.509,91.243 156.896 C 91.243 157.304,91.103 157.315,85.894 157.315 C 80.685 157.315,80.545 157.304,80.545 156.896 C 80.545 156.509,80.406 156.476,78.762 156.476 C 77.119 156.476,76.980 156.443,76.980 156.057 C 76.980 155.684,76.840 155.637,75.721 155.637 C 74.628 155.637,74.463 155.585,74.463 155.242 C 74.463 154.844,73.935 154.597,73.071 154.591 C 72.802 154.589,72.580 154.422,72.514 154.169 C 72.430 153.848,72.228 153.749,71.650 153.749 C 71.037 153.749,70.897 153.672,70.897 153.330 C 70.897 153.055,70.757 152.910,70.491 152.910 C 70.268 152.910,70.026 152.722,69.953 152.491 C 69.854 152.181,69.635 152.071,69.114 152.071 C 68.592 152.071,68.373 151.962,68.275 151.652 C 68.202 151.421,67.959 151.232,67.736 151.232 C 67.444 151.232,67.331 151.086,67.331 150.708 C 67.331 150.323,67.219 150.184,66.911 150.184 C 66.632 150.184,66.492 150.044,66.492 149.764 C 66.492 149.484,66.352 149.345,66.072 149.345 C 65.765 149.345,65.653 149.205,65.653 148.820 C 65.653 148.532,65.464 148.107,65.233 147.876 C 65.003 147.646,64.814 147.315,64.814 147.142 C 64.814 146.968,64.628 146.827,64.397 146.827 C 64.073 146.827,63.950 146.641,63.847 145.994 C 63.758 145.439,63.582 145.120,63.320 145.036 C 63.033 144.945,62.926 144.711,62.926 144.172 C 62.926 143.609,62.826 143.406,62.507 143.322 C 62.180 143.237,62.087 143.036,62.087 142.412 C 62.087 141.812,61.988 141.581,61.691 141.486 C 61.363 141.382,61.280 141.104,61.211 139.876 C 61.152 138.828,61.028 138.319,60.790 138.145 C 60.133 137.665,60.171 122.916,60.829 122.916 C 61.204 122.916,61.248 122.776,61.248 121.577 C 61.248 120.414,61.303 120.223,61.668 120.128 C 62.024 120.035,62.087 119.842,62.087 118.845 C 62.087 117.812,62.137 117.672,62.507 117.672 C 62.864 117.672,62.926 117.532,62.926 116.728 C 62.926 115.924,62.988 115.784,63.346 115.784 C 63.612 115.784,63.765 115.644,63.765 115.401 C 63.765 115.190,64.001 114.796,64.289 114.525 C 64.578 114.254,64.814 113.860,64.814 113.650 C 64.814 113.439,64.964 113.267,65.148 113.267 C 65.332 113.267,65.531 113.081,65.590 112.854 C 65.650 112.627,65.877 112.385,66.095 112.316 C 66.313 112.247,66.492 112.007,66.492 111.785 C 66.492 111.553,66.636 111.379,66.826 111.379 C 67.010 111.379,67.210 111.190,67.270 110.960 C 67.330 110.729,67.519 110.540,67.690 110.540 C 67.860 110.540,68.049 110.351,68.109 110.121 C 68.169 109.890,68.390 109.701,68.600 109.701 C 68.809 109.701,69.041 109.512,69.114 109.282 C 69.187 109.051,69.429 108.862,69.652 108.862 C 69.910 108.862,70.058 108.718,70.058 108.466 C 70.058 108.177,70.263 108.031,70.815 107.928 C 71.313 107.834,71.609 107.647,71.679 107.380 C 71.737 107.157,71.951 106.974,72.155 106.974 C 72.359 106.974,72.575 106.786,72.636 106.555 C 72.725 106.212,72.922 106.135,73.711 106.135 C 74.417 106.135,74.773 106.023,75.036 105.716 C 75.277 105.434,75.654 105.296,76.187 105.296 C 76.840 105.296,76.980 105.222,76.980 104.877 C 76.980 104.491,77.119 104.457,78.734 104.457 C 80.171 104.457,80.585 104.381,81.022 104.038 C 81.520 103.646,81.873 103.618,86.375 103.618 C 91.017 103.618,91.198 103.634,91.304 104.038 C 91.402 104.413,91.590 104.457,93.101 104.457 C 94.453 104.457,94.826 104.526,94.982 104.805 C 95.115 105.041,95.549 105.183,96.338 105.249 C 97.251 105.325,97.521 105.430,97.603 105.740 C 97.692 106.083,97.915 106.135,99.299 106.135 L 100.891 106.135 100.891 105.321 C 100.891 104.683,100.982 104.482,101.311 104.396 C 101.671 104.302,101.730 104.110,101.730 103.033 C 101.730 101.956,101.789 101.764,102.150 101.670 C 102.535 101.569,102.569 101.384,102.569 99.443 C 102.569 97.465,102.542 97.326,102.150 97.326 C 101.870 97.326,101.730 97.186,101.730 96.906 C 101.730 96.538,101.591 96.487,100.584 96.487 C 99.653 96.487,99.396 96.408,99.213 96.067 C 99.022 95.709,98.774 95.648,97.530 95.648 C 96.298 95.648,96.030 95.582,95.809 95.228 C 95.553 94.819,95.320 94.809,85.973 94.809 C 76.576 94.809,76.397 94.816,76.290 95.228 M3.146 130.467 L 3.146 165.286 22.968 165.286 L 42.790 165.286 42.790 160.881 L 42.790 156.476 27.792 156.476 L 12.795 156.476 12.795 145.045 L 12.795 133.613 25.957 133.610 C 33.196 133.609,39.331 133.550,39.591 133.481 C 40.061 133.355,40.063 133.335,40.063 129.079 L 40.063 124.803 26.429 124.803 L 12.795 124.803 12.795 114.630 L 12.795 104.457 27.268 104.457 L 41.741 104.457 41.741 100.052 L 41.741 95.648 22.444 95.648 L 3.146 95.648 3.146 130.467 M108.023 97.850 C 108.023 99.913,108.050 100.052,108.443 100.052 C 108.828 100.052,108.862 100.192,108.862 101.750 C 108.862 103.271,108.906 103.459,109.282 103.557 C 109.656 103.655,109.701 103.844,109.701 105.321 C 109.701 106.834,109.737 106.974,110.121 106.974 C 110.506 106.974,110.540 107.114,110.540 108.672 C 110.540 110.193,110.584 110.381,110.960 110.479 C 111.312 110.571,111.379 110.765,111.379 111.692 C 111.379 113.380,111.576 114.106,112.035 114.106 C 112.387 114.106,112.428 114.283,112.428 115.804 C 112.428 117.325,112.471 117.513,112.847 117.611 C 113.222 117.709,113.267 117.897,113.267 119.374 C 113.267 120.888,113.302 121.028,113.686 121.028 C 114.066 121.028,114.106 121.168,114.106 122.479 C 114.106 124.092,114.230 124.594,114.630 124.594 C 114.818 124.594,114.923 125.071,114.979 126.184 C 115.042 127.417,115.141 127.821,115.422 127.978 C 115.695 128.130,115.784 128.458,115.784 129.310 C 115.784 130.649,116.070 131.515,116.513 131.515 C 116.769 131.515,116.833 131.808,116.833 132.986 C 116.833 134.197,116.907 134.520,117.252 134.815 C 117.587 135.102,117.672 135.434,117.672 136.467 C 117.672 137.583,117.729 137.774,118.091 137.869 C 118.467 137.967,118.511 138.155,118.511 139.676 C 118.511 141.234,118.545 141.374,118.930 141.374 C 119.315 141.374,119.350 141.514,119.350 143.072 C 119.350 144.593,119.393 144.781,119.769 144.879 C 120.137 144.975,120.189 145.165,120.189 146.415 C 120.189 148.113,120.311 148.506,120.840 148.506 C 121.197 148.506,121.238 148.677,121.238 150.203 C 121.238 151.724,121.281 151.912,121.657 152.011 C 122.032 152.109,122.077 152.297,122.077 153.774 C 122.077 155.288,122.112 155.427,122.496 155.427 C 122.881 155.427,122.916 155.567,122.916 157.125 C 122.916 158.646,122.959 158.834,123.335 158.932 C 123.703 159.029,123.755 159.219,123.755 160.469 C 123.755 162.071,123.880 162.559,124.291 162.559 C 124.491 162.559,124.592 162.942,124.636 163.870 L 124.698 165.181 130.414 165.237 L 136.130 165.293 136.130 164.765 C 136.130 164.475,136.319 164.048,136.550 163.818 C 136.875 163.492,136.969 163.118,136.969 162.154 C 136.969 161.093,137.031 160.890,137.389 160.776 C 137.762 160.658,137.808 160.459,137.808 158.979 C 137.808 157.492,137.850 157.315,138.201 157.315 C 138.623 157.315,138.857 156.599,138.857 155.307 C 138.857 154.864,138.989 154.535,139.219 154.407 C 139.500 154.250,139.599 153.846,139.661 152.613 C 139.732 151.221,139.791 151.023,140.138 151.023 C 140.494 151.023,140.535 150.851,140.535 149.369 C 140.535 147.892,140.580 147.704,140.954 147.606 C 141.315 147.511,141.374 147.320,141.374 146.232 C 141.374 145.152,141.435 144.949,141.793 144.835 C 142.166 144.716,142.213 144.517,142.213 143.038 C 142.213 141.551,142.255 141.374,142.606 141.374 C 143.049 141.374,143.262 140.652,143.262 139.153 C 143.262 138.457,143.361 138.189,143.681 138.018 C 144.026 137.833,144.101 137.579,144.101 136.593 C 144.101 135.619,144.180 135.342,144.520 135.130 C 144.879 134.906,144.940 134.641,144.940 133.297 C 144.940 131.865,144.977 131.725,145.359 131.725 C 145.732 131.725,145.779 131.585,145.779 130.467 C 145.779 129.488,145.872 129.115,146.198 128.789 C 146.531 128.456,146.618 128.089,146.618 127.020 C 146.618 125.883,146.680 125.651,147.012 125.545 C 147.456 125.405,147.666 124.625,147.666 123.124 C 147.666 122.302,147.741 122.106,148.086 122.016 C 148.461 121.918,148.506 121.730,148.506 120.233 C 148.506 118.736,148.550 118.548,148.925 118.450 C 149.300 118.352,149.345 118.164,149.345 116.667 C 149.345 115.170,149.389 114.982,149.764 114.884 C 150.095 114.798,150.184 114.598,150.184 113.935 C 150.184 113.200,150.235 113.110,150.603 113.206 C 150.985 113.306,151.023 113.492,151.023 115.285 C 151.023 117.125,151.057 117.285,151.547 117.711 C 152.033 118.134,152.071 118.304,152.071 120.036 C 152.071 121.730,152.111 121.916,152.491 122.016 C 152.866 122.114,152.910 122.302,152.910 123.799 C 152.910 125.295,152.955 125.483,153.330 125.582 C 153.707 125.680,153.749 125.868,153.749 127.450 C 153.749 128.891,153.820 129.279,154.144 129.603 C 154.436 129.895,154.560 130.390,154.624 131.513 C 154.687 132.631,154.804 133.098,155.068 133.292 C 155.325 133.479,155.427 133.856,155.427 134.606 C 155.427 136.244,155.628 136.969,156.083 136.969 C 156.435 136.969,156.476 137.147,156.476 138.667 C 156.476 140.188,156.520 140.376,156.896 140.474 C 157.271 140.572,157.315 140.760,157.315 142.257 C 157.315 143.754,157.359 143.942,157.735 144.040 C 158.110 144.138,158.154 144.326,158.154 145.823 C 158.154 147.320,158.198 147.508,158.574 147.606 C 158.948 147.704,158.993 147.892,158.993 149.369 C 158.993 150.883,159.029 151.023,159.413 151.023 C 159.792 151.023,159.832 151.162,159.832 152.474 C 159.832 154.196,159.953 154.588,160.484 154.588 C 160.841 154.588,160.881 154.761,160.881 156.321 C 160.881 157.826,160.936 158.088,161.300 158.315 C 161.659 158.539,161.720 158.804,161.720 160.149 C 161.720 161.440,161.795 161.795,162.139 162.139 C 162.473 162.473,162.559 162.839,162.559 163.926 L 162.559 165.293 168.275 165.237 L 173.991 165.181 174.058 164.709 C 174.094 164.449,174.248 164.237,174.398 164.237 C 174.722 164.237,174.934 163.320,174.934 161.928 C 174.934 161.106,175.009 160.911,175.354 160.820 C 175.713 160.726,175.773 160.534,175.773 159.483 C 175.773 158.482,175.851 158.207,176.193 157.993 C 176.552 157.769,176.612 157.504,176.612 156.160 C 176.612 154.728,176.650 154.588,177.032 154.588 C 177.408 154.588,177.451 154.449,177.451 153.249 C 177.451 152.124,177.513 151.894,177.839 151.809 C 178.268 151.697,178.500 150.867,178.500 149.448 C 178.500 148.731,178.583 148.533,178.920 148.445 C 179.276 148.352,179.339 148.159,179.339 147.162 C 179.339 146.268,179.439 145.888,179.759 145.569 C 180.098 145.229,180.178 144.870,180.178 143.681 C 180.178 142.353,180.218 142.213,180.598 142.213 C 180.970 142.213,181.017 142.073,181.017 140.962 C 181.017 139.925,181.089 139.672,181.437 139.486 C 181.799 139.292,181.856 139.047,181.856 137.696 C 181.856 136.302,181.900 136.130,182.251 136.130 C 182.699 136.130,182.898 135.591,182.902 134.370 C 182.904 133.845,183.033 133.461,183.264 133.292 C 183.527 133.100,183.645 132.636,183.706 131.557 C 183.776 130.329,183.855 130.067,184.186 129.981 C 184.521 129.893,184.583 129.676,184.583 128.599 C 184.583 127.600,184.675 127.229,185.003 126.901 C 185.336 126.567,185.422 126.202,185.422 125.118 C 185.422 123.894,185.465 123.755,185.842 123.755 C 186.215 123.755,186.261 123.615,186.261 122.477 C 186.261 121.415,186.339 121.137,186.721 120.827 C 187.089 120.530,187.199 120.178,187.269 119.082 C 187.341 117.954,187.427 117.690,187.753 117.605 C 188.086 117.518,188.149 117.300,188.149 116.223 C 188.149 115.225,188.241 114.853,188.568 114.525 C 188.902 114.192,188.988 113.826,188.988 112.743 C 188.988 111.519,189.031 111.379,189.407 111.379 C 189.782 111.379,189.827 111.239,189.827 110.062 C 189.827 109.005,189.910 108.675,190.246 108.386 C 190.586 108.095,190.666 107.768,190.666 106.662 C 190.666 105.466,190.715 105.296,191.059 105.296 C 191.483 105.296,191.715 104.579,191.715 103.269 C 191.715 102.842,191.884 102.370,192.134 102.102 C 192.453 101.760,192.554 101.361,192.554 100.447 C 192.554 99.426,192.618 99.221,192.973 99.109 C 193.346 98.990,193.393 98.791,193.393 97.312 L 193.393 95.648 188.149 95.648 C 183.153 95.648,182.905 95.666,182.905 96.043 C 182.905 96.260,182.731 96.483,182.517 96.539 C 182.079 96.654,181.856 97.484,181.856 99.005 C 181.856 99.827,181.782 100.023,181.437 100.113 C 181.061 100.212,181.017 100.399,181.017 101.921 C 181.017 103.478,180.983 103.618,180.598 103.618 C 180.224 103.618,180.178 103.758,180.178 104.896 C 180.178 105.856,180.074 106.307,179.759 106.707 C 179.449 107.101,179.339 107.558,179.339 108.457 C 179.339 109.489,179.276 109.693,178.920 109.806 C 178.547 109.924,178.500 110.123,178.500 111.603 C 178.500 113.090,178.458 113.267,178.107 113.267 C 177.649 113.267,177.451 113.993,177.451 115.681 C 177.451 116.607,177.384 116.801,177.032 116.893 C 176.656 116.992,176.612 117.180,176.612 118.701 C 176.612 120.259,176.578 120.399,176.193 120.399 C 175.818 120.399,175.773 120.538,175.773 121.729 C 175.773 122.794,175.689 123.136,175.354 123.440 C 175.019 123.743,174.934 124.086,174.934 125.136 C 174.934 126.269,174.876 126.472,174.515 126.586 C 174.142 126.705,174.095 126.904,174.095 128.383 C 174.095 129.870,174.054 130.047,173.702 130.047 C 173.242 130.047,173.047 130.773,173.047 132.486 C 173.047 133.309,172.968 133.613,172.754 133.613 C 172.333 133.613,172.208 134.091,172.208 135.703 C 172.208 136.953,172.156 137.143,171.788 137.240 C 171.416 137.337,171.369 137.526,171.369 138.928 C 171.369 140.322,171.320 140.522,170.949 140.640 C 170.574 140.759,170.530 140.957,170.530 142.517 C 170.530 144.085,170.487 144.273,170.110 144.371 C 169.727 144.471,169.691 144.657,169.691 146.493 C 169.691 148.340,169.657 148.506,169.286 148.506 C 169.064 148.506,168.839 148.671,168.786 148.873 C 168.734 149.074,168.680 148.508,168.666 147.614 C 168.644 146.136,168.604 145.988,168.222 145.988 C 167.829 145.988,167.803 145.849,167.803 143.786 C 167.803 141.723,167.776 141.584,167.383 141.584 C 166.998 141.584,166.964 141.444,166.964 139.851 C 166.964 138.346,166.909 138.084,166.544 137.857 C 166.188 137.634,166.124 137.366,166.122 136.076 C 166.119 134.277,165.971 133.613,165.576 133.613 C 165.365 133.613,165.286 133.306,165.286 132.486 C 165.286 130.773,165.091 130.047,164.630 130.047 C 164.277 130.047,164.237 129.868,164.237 128.264 C 164.237 126.621,164.204 126.481,163.818 126.481 C 163.431 126.481,163.398 126.342,163.398 124.698 C 163.398 123.055,163.365 122.916,162.979 122.916 C 162.595 122.916,162.559 122.776,162.559 121.266 C 162.559 119.971,162.474 119.509,162.166 119.116 C 161.888 118.762,161.747 118.163,161.686 117.072 C 161.621 115.929,161.506 115.460,161.240 115.266 C 160.996 115.088,160.880 114.708,160.879 114.083 C 160.874 112.420,160.656 111.589,160.224 111.589 C 159.872 111.589,159.832 111.407,159.832 109.806 C 159.832 108.163,159.799 108.023,159.413 108.023 C 159.026 108.023,158.993 107.883,158.993 106.240 C 158.993 104.597,158.960 104.457,158.574 104.457 C 158.189 104.457,158.154 104.317,158.154 102.760 C 158.154 101.238,158.111 101.051,157.735 100.952 C 157.359 100.854,157.315 100.666,157.315 99.169 C 157.315 97.688,157.268 97.484,156.907 97.389 C 156.614 97.313,156.481 97.067,156.435 96.518 L 156.371 95.752 150.655 95.697 L 144.940 95.641 144.940 97.008 C 144.940 98.235,144.897 98.374,144.520 98.374 C 144.136 98.374,144.101 98.514,144.101 100.028 C 144.101 101.505,144.056 101.693,143.681 101.791 C 143.305 101.890,143.262 102.077,143.262 103.599 C 143.262 105.124,143.221 105.296,142.865 105.296 C 142.365 105.296,142.213 105.690,142.213 106.981 C 142.213 107.730,142.116 108.056,141.851 108.205 C 141.571 108.362,141.471 108.764,141.409 109.979 C 141.342 111.308,141.268 111.568,140.932 111.655 C 140.587 111.746,140.535 111.965,140.535 113.338 C 140.535 114.732,140.486 114.932,140.115 115.050 C 139.742 115.168,139.696 115.367,139.696 116.847 C 139.696 118.371,139.661 118.511,139.276 118.511 C 138.903 118.511,138.857 118.651,138.857 119.788 C 138.857 120.853,138.780 121.128,138.393 121.441 C 138.012 121.749,137.914 122.082,137.845 123.310 C 137.787 124.340,137.677 124.803,137.492 124.803 C 137.098 124.803,136.969 125.303,136.969 126.833 C 136.969 128.022,136.915 128.213,136.550 128.308 C 136.175 128.406,136.130 128.594,136.130 130.072 C 136.130 131.585,136.095 131.725,135.711 131.725 C 135.334 131.725,135.291 131.865,135.291 133.089 C 135.291 134.172,135.205 134.538,134.872 134.872 C 134.540 135.203,134.452 135.571,134.452 136.630 C 134.452 137.756,134.390 137.985,134.064 138.070 C 133.624 138.186,133.403 139.016,133.403 140.561 C 133.403 141.289,133.320 141.584,133.115 141.584 C 132.755 141.584,132.564 142.499,132.564 144.224 C 132.564 145.340,132.497 145.590,132.145 145.779 C 131.780 145.974,131.725 146.218,131.725 147.651 C 131.725 149.228,131.596 149.554,130.974 149.554 C 130.926 149.554,130.886 148.790,130.886 147.857 C 130.886 146.335,130.843 146.148,130.467 146.049 C 130.101 145.954,130.047 145.762,130.045 144.548 C 130.041 142.426,129.855 141.584,129.390 141.584 C 129.038 141.584,128.998 141.402,128.998 139.801 C 128.998 138.158,128.966 138.018,128.579 138.018 C 128.189 138.018,128.159 137.878,128.159 136.027 C 128.159 134.263,128.112 134.006,127.740 133.774 C 127.378 133.548,127.320 133.285,127.320 131.865 C 127.320 130.394,127.275 130.206,126.901 130.108 C 126.526 130.010,126.481 129.822,126.481 128.325 C 126.481 126.828,126.437 126.640,126.062 126.542 C 125.697 126.447,125.642 126.256,125.642 125.087 C 125.642 123.724,125.217 122.286,124.814 122.286 C 124.677 122.286,124.594 121.617,124.594 120.528 C 124.594 118.946,124.552 118.758,124.174 118.660 C 123.799 118.562,123.755 118.374,123.755 116.877 C 123.755 115.380,123.710 115.192,123.335 115.094 C 122.959 114.996,122.916 114.808,122.916 113.287 C 122.916 111.729,122.881 111.589,122.496 111.589 C 122.110 111.589,122.077 111.449,122.077 109.846 C 122.077 108.392,122.007 108.027,121.657 107.652 C 121.374 107.348,121.237 106.909,121.235 106.301 C 121.231 104.719,120.996 103.780,120.576 103.671 C 120.240 103.583,120.189 103.347,120.189 101.896 C 120.189 100.399,120.145 100.211,119.769 100.113 C 119.394 100.015,119.350 99.827,119.350 98.330 C 119.350 96.834,119.306 96.646,118.930 96.547 C 118.698 96.487,118.511 96.261,118.511 96.043 C 118.511 95.666,118.263 95.648,113.267 95.648 L 108.023 95.648 108.023 97.850 M275.669 113.406 C 275.524 113.464,275.406 113.645,275.406 113.809 C 275.406 114.046,274.976 114.106,273.289 114.106 C 271.367 114.106,271.162 114.144,271.065 114.514 C 270.985 114.822,270.743 114.939,270.089 114.986 C 269.370 115.039,269.207 115.132,269.152 115.522 C 269.097 115.909,268.952 115.994,268.345 115.994 C 267.783 115.994,267.580 116.094,267.497 116.413 C 267.436 116.645,267.210 116.833,266.992 116.833 C 266.737 116.833,266.597 116.981,266.597 117.252 C 266.597 117.532,266.457 117.672,266.177 117.672 C 265.903 117.672,265.758 117.812,265.758 118.077 C 265.758 118.336,265.589 118.506,265.288 118.549 C 265.030 118.585,264.785 118.789,264.744 119.002 C 264.704 119.214,264.491 119.568,264.270 119.788 C 264.050 120.009,263.870 120.425,263.870 120.713 C 263.870 121.095,263.758 121.238,263.456 121.238 C 263.065 121.238,263.039 121.064,262.984 118.144 L 262.926 115.050 258.154 114.993 L 253.382 114.937 253.382 122.355 C 253.382 129.506,253.397 129.786,253.802 130.152 C 254.215 130.526,254.221 130.798,254.221 147.909 L 254.221 165.286 259.046 165.286 L 263.870 165.286 263.870 152.418 C 263.870 139.818,263.879 139.543,264.289 139.171 C 264.667 138.829,264.709 138.525,264.709 136.098 C 264.709 133.543,264.731 133.403,265.128 133.403 C 265.501 133.403,265.548 133.263,265.548 132.159 C 265.548 131.029,265.591 130.909,266.020 130.848 C 266.398 130.795,266.505 130.626,266.556 130.005 C 266.602 129.456,266.740 129.191,267.028 129.099 C 267.252 129.028,267.436 128.788,267.436 128.565 C 267.436 128.299,267.580 128.159,267.855 128.159 C 268.135 128.159,268.275 128.020,268.275 127.740 C 268.275 127.460,268.415 127.320,268.694 127.320 C 268.974 127.320,269.114 127.181,269.114 126.901 C 269.114 126.621,269.254 126.481,269.533 126.481 C 269.813 126.481,269.953 126.342,269.953 126.062 C 269.953 125.722,270.093 125.642,270.685 125.642 C 271.190 125.642,271.499 125.512,271.679 125.223 C 271.856 124.940,272.269 124.761,272.956 124.670 C 273.613 124.583,274.057 124.397,274.215 124.145 C 274.543 123.620,278.069 123.554,278.267 124.069 C 278.432 124.500,279.044 124.465,279.464 124.000 C 279.766 123.667,279.811 122.992,279.811 118.861 L 279.811 114.106 278.498 114.106 C 277.413 114.106,277.140 114.033,276.923 113.686 C 276.671 113.283,276.222 113.182,275.669 113.406 M350.574 113.791 C 350.474 114.051,349.914 114.106,347.344 114.106 C 344.418 114.106,344.226 114.131,344.101 114.525 C 344.009 114.814,343.783 114.945,343.379 114.945 C 342.192 114.945,341.479 115.191,341.479 115.600 C 341.479 115.877,341.328 115.994,340.972 115.994 C 340.247 115.994,339.801 116.202,339.801 116.541 C 339.801 116.712,339.585 116.833,339.276 116.833 C 338.892 116.833,338.752 116.945,338.752 117.252 C 338.752 117.532,338.612 117.672,338.332 117.672 C 338.053 117.672,337.913 117.812,337.913 118.091 C 337.913 118.371,337.773 118.511,337.493 118.511 C 337.214 118.511,337.074 118.651,337.074 118.930 C 337.074 119.210,336.934 119.350,336.654 119.350 C 336.373 119.350,336.235 119.490,336.235 119.774 C 336.235 120.034,336.032 120.276,335.711 120.399 C 335.288 120.559,335.186 120.742,335.186 121.337 C 335.186 121.937,335.107 122.077,334.767 122.077 C 334.411 122.077,334.347 122.216,334.347 122.996 C 334.347 123.739,334.267 123.936,333.928 124.025 C 333.524 124.131,333.508 124.311,333.508 128.769 C 333.508 133.263,333.521 133.403,333.928 133.403 C 334.285 133.403,334.347 133.543,334.347 134.347 C 334.347 135.151,334.409 135.291,334.767 135.291 C 335.071 135.291,335.186 135.431,335.186 135.798 C 335.186 136.580,335.403 136.969,335.838 136.969 C 336.087 136.969,336.235 137.116,336.235 137.364 C 336.235 137.583,336.422 137.808,336.654 137.869 C 336.905 137.934,337.074 138.155,337.074 138.418 C 337.074 138.708,337.208 138.857,337.469 138.857 C 337.688 138.857,337.913 139.044,337.974 139.276 C 338.034 139.507,338.234 139.696,338.418 139.696 C 338.602 139.696,338.941 139.885,339.171 140.115 C 339.402 140.346,339.827 140.535,340.115 140.535 C 340.500 140.535,340.640 140.647,340.640 140.954 C 340.640 141.304,340.780 141.374,341.479 141.374 C 342.162 141.374,342.318 141.448,342.318 141.771 C 342.318 142.202,342.706 142.423,343.464 142.423 C 343.770 142.423,343.987 142.576,344.057 142.842 C 344.141 143.163,344.343 143.262,344.920 143.262 C 345.394 143.262,345.829 143.417,346.093 143.681 C 346.385 143.973,346.793 144.101,347.432 144.101 C 348.175 144.101,348.373 144.181,348.461 144.520 C 348.549 144.854,348.748 144.940,349.430 144.940 C 350.149 144.940,350.288 145.008,350.288 145.359 C 350.288 145.685,350.428 145.779,350.913 145.779 C 351.347 145.779,351.642 145.938,351.881 146.303 C 352.070 146.592,352.344 146.827,352.490 146.827 C 352.637 146.827,352.806 147.016,352.866 147.247 C 352.932 147.498,353.152 147.666,353.415 147.666 C 353.694 147.666,353.854 147.801,353.854 148.036 C 353.854 148.239,354.043 148.522,354.274 148.667 C 354.659 148.907,354.693 149.156,354.693 151.734 C 354.693 154.363,354.667 154.546,354.274 154.649 C 354.023 154.715,353.854 154.935,353.854 155.198 C 353.854 155.504,353.721 155.637,353.415 155.637 C 353.152 155.637,352.932 155.806,352.866 156.057 C 352.806 156.289,352.580 156.476,352.361 156.476 C 352.106 156.476,351.966 156.625,351.966 156.896 C 351.966 157.265,351.827 157.315,350.793 157.315 C 349.796 157.315,349.603 157.378,349.510 157.735 C 349.408 158.127,349.224 158.154,346.698 158.154 C 344.275 158.154,343.952 158.111,343.576 157.735 C 343.243 157.401,342.877 157.315,341.793 157.315 C 340.570 157.315,340.430 157.272,340.430 156.896 C 340.430 156.532,340.290 156.476,339.383 156.476 C 338.563 156.476,338.279 156.385,338.074 156.057 C 337.930 155.826,337.622 155.635,337.391 155.634 C 337.159 155.632,336.742 155.391,336.465 155.098 C 335.793 154.390,334.489 154.432,334.385 155.165 C 334.342 155.468,334.173 155.637,333.913 155.637 C 333.558 155.637,333.508 155.792,333.508 156.896 C 333.508 158.014,333.462 158.154,333.089 158.154 C 332.712 158.154,332.669 158.294,332.669 159.518 C 332.669 160.741,332.626 160.881,332.250 160.881 C 331.877 160.881,331.830 161.021,331.830 162.139 L 331.830 163.398 332.669 163.398 C 333.352 163.398,333.508 163.472,333.508 163.795 C 333.508 164.247,333.899 164.447,334.784 164.447 C 335.167 164.447,335.396 164.556,335.396 164.739 C 335.396 165.155,335.871 165.286,337.381 165.286 C 338.527 165.286,338.718 165.342,338.813 165.705 C 338.920 166.115,339.099 166.125,346.283 166.125 C 353.505 166.125,353.644 166.117,353.644 165.705 C 353.644 165.329,353.784 165.286,355.008 165.286 C 356.217 165.286,356.371 165.240,356.371 164.879 C 356.371 164.560,356.542 164.458,357.158 164.407 C 357.790 164.355,357.958 164.249,358.011 163.870 C 358.069 163.462,358.204 163.398,359.008 163.398 C 359.797 163.398,359.937 163.335,359.937 162.979 C 359.937 162.699,360.077 162.559,360.357 162.559 C 360.636 162.559,360.776 162.419,360.776 162.139 C 360.776 161.860,360.916 161.720,361.196 161.720 C 361.475 161.720,361.615 161.580,361.615 161.300 C 361.615 161.021,361.755 160.881,362.035 160.881 C 362.295 160.881,362.454 160.741,362.454 160.511 C 362.454 160.308,362.666 160.048,362.925 159.934 C 363.184 159.820,363.429 159.548,363.471 159.328 C 363.512 159.109,363.725 158.737,363.944 158.502 C 364.186 158.243,364.342 157.771,364.342 157.300 C 364.342 156.701,364.437 156.500,364.761 156.415 C 365.167 156.309,365.181 156.129,365.181 150.840 C 365.181 145.589,365.164 145.365,364.761 145.149 C 364.463 144.990,364.342 144.710,364.342 144.179 C 364.342 143.609,364.243 143.406,363.922 143.322 C 363.690 143.262,363.503 143.036,363.503 142.818 C 363.503 142.536,363.352 142.423,362.979 142.423 C 362.559 142.423,362.454 142.318,362.454 141.898 C 362.454 141.514,362.342 141.374,362.035 141.374 C 361.755 141.374,361.615 141.234,361.615 140.954 C 361.615 140.675,361.475 140.535,361.196 140.535 C 360.916 140.535,360.776 140.395,360.776 140.115 C 360.776 139.836,360.636 139.696,360.357 139.696 C 360.077 139.696,359.937 139.556,359.937 139.276 C 359.937 138.969,359.797 138.857,359.413 138.857 C 359.028 138.857,358.888 138.745,358.888 138.437 C 358.888 138.088,358.748 138.018,358.049 138.018 C 357.366 138.018,357.210 137.944,357.210 137.621 C 357.210 137.190,356.822 136.969,356.064 136.969 C 355.758 136.969,355.541 136.816,355.471 136.550 C 355.384 136.216,355.185 136.130,354.503 136.130 C 353.909 136.130,353.644 136.040,353.644 135.838 C 353.644 135.451,353.180 135.291,352.054 135.291 C 351.267 135.291,351.127 135.228,351.127 134.872 C 351.127 134.514,350.988 134.452,350.184 134.452 C 349.379 134.452,349.240 134.390,349.240 134.033 C 349.240 133.683,349.100 133.613,348.401 133.613 C 347.717 133.613,347.562 133.539,347.562 133.216 C 347.562 132.796,347.175 132.564,346.476 132.564 C 346.230 132.564,346.008 132.389,345.944 132.145 C 345.873 131.873,345.658 131.725,345.335 131.725 C 344.997 131.725,344.835 131.605,344.835 131.356 C 344.835 131.153,344.646 130.869,344.415 130.725 C 344.036 130.488,343.996 130.236,343.996 128.077 C 343.996 125.868,344.027 125.683,344.415 125.582 C 344.666 125.516,344.835 125.295,344.835 125.033 C 344.835 124.743,344.969 124.594,345.230 124.594 C 345.449 124.594,345.674 124.406,345.735 124.174 C 345.800 123.923,346.021 123.755,346.283 123.755 C 346.583 123.755,346.723 123.621,346.723 123.335 C 346.723 122.966,346.862 122.916,347.896 122.916 C 348.893 122.916,349.086 122.853,349.179 122.496 C 349.319 121.960,353.015 121.837,353.015 122.369 C 353.015 122.785,353.491 122.916,355.001 122.916 C 356.146 122.916,356.337 122.972,356.432 123.335 C 356.519 123.666,356.718 123.755,357.376 123.755 C 358.021 123.755,358.234 123.846,358.315 124.156 C 358.522 124.949,361.615 125.000,361.615 124.210 C 361.615 124.015,361.804 123.738,362.035 123.594 C 362.371 123.383,362.454 123.104,362.454 122.180 C 362.454 121.193,362.511 121.028,362.847 121.028 C 363.328 121.028,363.503 120.298,363.503 118.290 C 363.503 116.598,363.002 115.994,361.601 115.994 C 360.935 115.994,360.794 115.917,360.738 115.522 C 360.678 115.098,360.538 115.043,359.360 114.987 C 358.221 114.933,358.049 114.871,358.049 114.515 C 358.049 114.128,357.884 114.106,354.929 114.106 C 352.411 114.106,351.758 114.045,351.547 113.791 C 351.403 113.618,351.153 113.477,350.990 113.477 C 350.828 113.477,350.640 113.618,350.574 113.791 M218.658 113.883 C 218.548 113.991,216.870 114.109,214.930 114.145 C 211.829 114.203,211.376 114.255,211.196 114.578 C 211.059 114.823,210.734 114.946,210.215 114.948 C 209.033 114.952,208.495 115.156,208.495 115.599 C 208.495 115.927,208.336 115.994,207.551 115.994 C 206.747 115.994,206.607 116.056,206.607 116.413 C 206.607 116.763,206.467 116.833,205.768 116.833 C 205.069 116.833,204.929 116.903,204.929 117.252 C 204.929 117.538,204.789 117.672,204.490 117.672 C 204.227 117.672,204.007 117.840,203.941 118.091 C 203.871 118.359,203.655 118.511,203.342 118.511 C 203.073 118.511,202.599 118.747,202.287 119.035 C 201.976 119.324,201.641 119.560,201.543 119.560 C 201.444 119.560,201.363 119.748,201.363 119.979 C 201.363 120.259,201.224 120.399,200.944 120.399 C 200.664 120.399,200.524 120.538,200.524 120.818 C 200.524 121.098,200.385 121.238,200.105 121.238 C 199.830 121.238,199.685 121.377,199.685 121.643 C 199.685 121.866,199.500 122.107,199.273 122.179 C 199.015 122.261,198.812 122.573,198.729 123.013 C 198.646 123.458,198.450 123.754,198.197 123.821 C 197.965 123.881,197.798 124.109,197.798 124.364 C 197.798 124.606,197.666 124.803,197.505 124.803 C 197.171 124.803,196.959 125.249,196.959 125.950 C 196.959 126.256,196.805 126.473,196.539 126.542 C 196.215 126.627,196.120 126.828,196.120 127.424 C 196.120 127.956,195.982 128.308,195.679 128.554 C 195.381 128.795,195.201 129.246,195.122 129.951 C 195.055 130.546,194.862 131.096,194.671 131.236 C 194.408 131.428,194.321 131.978,194.266 133.797 C 194.203 135.859,194.151 136.127,193.794 136.241 C 193.159 136.442,193.176 144.382,193.812 144.779 C 194.186 145.012,194.232 145.268,194.232 147.107 C 194.232 148.998,194.268 149.183,194.651 149.284 C 194.985 149.371,195.071 149.571,195.074 150.260 C 195.078 151.532,195.272 152.071,195.725 152.071 C 196.046 152.071,196.120 152.228,196.120 152.910 C 196.120 153.610,196.189 153.749,196.539 153.749 C 196.887 153.749,196.959 153.889,196.959 154.574 C 196.959 155.215,197.052 155.429,197.378 155.532 C 197.672 155.625,197.798 155.850,197.798 156.279 C 197.798 156.665,197.953 156.989,198.217 157.154 C 198.448 157.298,198.637 157.582,198.637 157.785 C 198.637 158.007,198.794 158.154,199.032 158.154 C 199.250 158.154,199.476 158.341,199.536 158.574 C 199.602 158.825,199.822 158.993,200.085 158.993 C 200.391 158.993,200.524 159.126,200.524 159.432 C 200.524 159.695,200.693 159.916,200.944 159.981 C 201.176 160.042,201.363 160.267,201.363 160.486 C 201.363 160.741,201.512 160.881,201.783 160.881 C 202.063 160.881,202.202 161.021,202.202 161.300 C 202.202 161.575,202.342 161.720,202.608 161.720 C 202.831 161.720,203.073 161.909,203.146 162.139 C 203.250 162.465,203.464 162.559,204.104 162.559 C 204.789 162.559,204.929 162.630,204.929 162.979 C 204.929 163.249,205.069 163.398,205.323 163.398 C 205.540 163.398,205.847 163.593,206.005 163.831 C 206.191 164.111,206.610 164.306,207.192 164.384 C 207.767 164.461,208.167 164.645,208.301 164.895 C 208.469 165.209,208.755 165.286,209.761 165.286 C 210.880 165.286,211.012 165.331,211.012 165.713 C 211.012 166.304,225.332 166.276,225.764 165.685 C 225.914 165.480,226.448 165.307,227.139 165.241 C 227.881 165.169,228.334 165.014,228.460 164.789 C 228.566 164.601,228.876 164.447,229.149 164.447 C 229.921 164.447,230.309 164.229,230.309 163.795 C 230.309 163.470,230.465 163.398,231.168 163.398 C 231.850 163.398,232.049 163.312,232.136 162.979 C 232.197 162.746,232.422 162.559,232.641 162.559 C 232.896 162.559,233.036 162.410,233.036 162.139 C 233.036 161.798,233.176 161.720,233.790 161.720 C 234.367 161.720,234.569 161.622,234.653 161.300 C 234.714 161.068,234.940 160.881,235.158 160.881 C 235.375 160.881,235.553 160.737,235.553 160.562 C 235.553 160.386,235.789 160.135,236.078 160.004 C 236.366 159.872,236.602 159.591,236.602 159.379 C 236.602 159.133,236.754 158.993,237.021 158.993 C 237.301 158.993,237.441 158.853,237.441 158.574 C 237.441 158.294,237.581 158.154,237.861 158.154 C 238.156 158.154,238.280 158.014,238.280 157.680 C 238.280 157.420,238.469 157.088,238.700 156.944 C 238.937 156.796,239.119 156.455,239.119 156.160 C 239.119 155.872,239.207 155.637,239.314 155.637 C 239.712 155.637,240.168 154.958,240.168 154.364 C 240.168 153.889,240.263 153.749,240.587 153.749 C 240.935 153.749,241.007 153.610,241.007 152.935 C 241.007 152.297,241.098 152.096,241.426 152.011 C 241.776 151.919,241.846 151.724,241.846 150.834 C 241.846 149.995,241.935 149.712,242.265 149.506 C 242.630 149.278,242.685 149.016,242.685 147.511 C 242.685 145.919,242.719 145.779,243.104 145.779 C 243.514 145.779,243.524 145.639,243.524 139.781 C 243.524 133.960,243.512 133.780,243.104 133.674 C 242.727 133.575,242.685 133.388,242.685 131.806 C 242.685 130.187,242.651 130.047,242.265 130.047 C 241.897 130.047,241.846 129.907,241.846 128.901 C 241.846 127.969,241.767 127.713,241.426 127.530 C 241.127 127.370,241.007 127.091,241.007 126.559 C 241.007 126.002,240.906 125.786,240.607 125.708 C 240.349 125.641,240.158 125.342,240.069 124.866 C 239.979 124.385,239.789 124.091,239.525 124.021 C 239.267 123.954,239.119 123.733,239.119 123.415 C 239.119 123.055,239.002 122.916,238.700 122.916 C 238.420 122.916,238.280 122.776,238.280 122.496 C 238.280 122.216,238.140 122.077,237.861 122.077 C 237.580 122.077,237.441 121.937,237.441 121.654 C 237.441 121.135,235.624 119.350,235.096 119.350 C 234.854 119.350,234.714 119.196,234.714 118.930 C 234.714 118.651,234.574 118.511,234.295 118.511 C 234.015 118.511,233.875 118.371,233.875 118.091 C 233.875 117.784,233.735 117.672,233.351 117.672 C 233.042 117.672,232.826 117.551,232.826 117.380 C 232.826 117.041,232.380 116.833,231.656 116.833 C 231.288 116.833,231.148 116.717,231.148 116.413 C 231.148 116.065,231.009 115.994,230.324 115.994 C 229.699 115.994,229.468 115.898,229.373 115.597 C 229.233 115.158,228.677 114.952,227.616 114.948 C 227.230 114.946,226.675 114.756,226.381 114.525 C 225.901 114.147,225.530 114.106,222.637 114.106 C 220.723 114.106,219.375 114.021,219.297 113.896 C 219.135 113.634,218.915 113.629,218.658 113.883 M220.766 122.496 C 220.879 122.853,221.083 122.916,222.143 122.916 C 223.248 122.916,223.388 122.963,223.388 123.335 C 223.388 123.685,223.527 123.755,224.227 123.755 C 224.926 123.755,225.066 123.825,225.066 124.174 C 225.066 124.460,225.205 124.594,225.505 124.594 C 225.767 124.594,225.988 124.762,226.054 125.013 C 226.114 125.244,226.270 125.436,226.401 125.439 C 226.790 125.450,227.792 126.434,227.792 126.806 C 227.792 126.995,227.981 127.199,228.212 127.260 C 228.444 127.320,228.631 127.546,228.631 127.764 C 228.631 128.011,228.779 128.159,229.024 128.159 C 229.320 128.159,229.450 128.366,229.551 128.998 C 229.633 129.514,229.798 129.837,229.979 129.837 C 230.159 129.837,230.329 130.170,230.419 130.702 C 230.519 131.298,230.688 131.599,230.961 131.670 C 231.293 131.757,231.358 131.974,231.358 132.984 C 231.358 134.017,231.419 134.209,231.778 134.303 C 232.184 134.409,232.197 134.589,232.197 140.201 C 232.197 145.849,232.187 145.988,231.778 145.988 C 231.405 145.988,231.358 146.128,231.358 147.247 C 231.358 148.346,231.307 148.506,230.957 148.506 C 230.651 148.506,230.522 148.710,230.410 149.370 C 230.309 149.966,230.140 150.267,229.867 150.338 C 229.564 150.418,229.470 150.634,229.470 151.257 C 229.470 151.931,229.398 152.071,229.051 152.071 C 228.771 152.071,228.631 152.211,228.631 152.491 C 228.631 152.770,228.492 152.910,228.212 152.910 C 227.932 152.910,227.792 153.050,227.792 153.330 C 227.792 153.610,227.653 153.749,227.373 153.749 C 227.093 153.749,226.953 153.889,226.953 154.169 C 226.953 154.405,226.813 154.588,226.634 154.588 C 226.459 154.588,226.208 154.824,226.076 155.113 C 225.945 155.401,225.686 155.637,225.502 155.637 C 225.317 155.637,225.049 155.826,224.904 156.057 C 224.737 156.324,224.415 156.476,224.015 156.476 C 223.527 156.476,223.388 156.570,223.388 156.896 C 223.388 157.269,223.248 157.315,222.109 157.315 C 221.008 157.315,220.816 157.373,220.721 157.735 C 220.621 158.120,220.435 158.154,218.434 158.154 C 216.396 158.154,216.256 158.127,216.256 157.735 C 216.256 157.363,216.116 157.315,215.022 157.315 C 213.964 157.315,213.772 157.255,213.678 156.896 C 213.591 156.562,213.392 156.476,212.710 156.476 C 211.991 156.476,211.851 156.408,211.851 156.057 C 211.851 155.777,211.711 155.637,211.432 155.637 C 211.152 155.637,211.012 155.497,211.012 155.218 C 211.012 154.974,210.872 154.798,210.678 154.798 C 210.494 154.798,210.292 154.602,210.230 154.363 C 210.167 154.123,209.893 153.842,209.620 153.738 C 209.347 153.635,209.124 153.406,209.124 153.230 C 209.124 153.050,208.941 152.910,208.705 152.910 C 208.425 152.910,208.285 152.770,208.285 152.491 C 208.285 152.211,208.145 152.071,207.866 152.071 C 207.516 152.071,207.446 151.931,207.446 151.232 C 207.446 150.533,207.376 150.393,207.027 150.393 C 206.676 150.393,206.607 150.253,206.607 149.535 C 206.607 148.852,206.521 148.653,206.188 148.566 C 205.866 148.482,205.768 148.279,205.765 147.694 C 205.761 146.653,205.561 145.988,205.251 145.988 C 204.910 145.988,204.707 141.304,204.872 137.237 C 204.960 135.072,205.065 134.242,205.251 134.242 C 205.561 134.242,205.761 133.577,205.765 132.536 C 205.768 131.952,205.866 131.749,206.188 131.664 C 206.519 131.578,206.607 131.378,206.607 130.721 C 206.607 130.063,206.696 129.863,207.027 129.777 C 207.348 129.693,207.446 129.491,207.446 128.913 C 207.446 128.299,207.524 128.159,207.866 128.159 C 208.145 128.159,208.285 128.020,208.285 127.740 C 208.285 127.460,208.425 127.320,208.705 127.320 C 208.984 127.320,209.124 127.181,209.124 126.901 C 209.124 126.670,209.263 126.481,209.432 126.481 C 209.601 126.481,209.836 126.299,209.956 126.076 C 210.075 125.853,210.361 125.611,210.592 125.538 C 210.823 125.464,211.012 125.222,211.012 124.999 C 211.012 124.733,211.157 124.594,211.432 124.594 C 211.711 124.594,211.851 124.454,211.851 124.174 C 211.851 123.826,211.991 123.755,212.676 123.755 C 213.317 123.755,213.531 123.661,213.634 123.335 C 213.747 122.978,213.951 122.916,215.012 122.916 C 216.116 122.916,216.256 122.868,216.256 122.496 C 216.256 122.103,216.396 122.077,218.444 122.077 C 220.448 122.077,220.644 122.112,220.766 122.496 " stroke="none" fill="#fcfcfc" fill-rule="evenodd"></path><path id="path1" d="M214.578 177.137 L 214.578 180.178 289.879 180.178 L 365.181 180.178 365.181 177.137 L 365.181 174.095 289.879 174.095 L 214.578 174.095 214.578 177.137 " stroke="none" fill="#c2e02c" fill-rule="evenodd"></path><path id="path2" d="" stroke="none" fill="#d0e4100" fill-rule="evenodd"></path><path id="path3" d="" stroke="none" fill="#d0e4100" fill-rule="evenodd"></path><path id="path4" d="" stroke="none" fill="#d0e4100" fill-rule="evenodd"></path></g></svg>