<svg id="svg" version="1.1" xmlns="http://www.w3.org/2000/svg" xmlns:xlink="http://www.w3.org/1999/xlink" width="400" height="126.84989429175475" viewBox="0, 0, 400,126.84989429175475"><g id="svgg"><path id="path0" d="M318.667 108.167 C 317.246 108.220,316.154 108.279,316.240 108.298 C 316.326 108.318,316.235 108.484,316.037 108.668 C 315.837 108.854,315.720 109.113,315.774 109.251 C 315.880 109.528,316.333 109.595,316.333 109.333 C 316.333 109.242,316.408 109.167,316.500 109.167 C 316.592 109.167,316.667 109.421,316.667 109.732 C 316.667 110.049,316.764 110.335,316.888 110.383 C 317.180 110.495,317.130 111.483,316.822 111.673 C 316.625 111.796,316.638 111.859,316.901 112.051 C 317.121 112.212,317.158 112.319,317.024 112.402 C 316.916 112.468,316.787 112.406,316.731 112.261 C 316.628 111.993,315.833 111.887,315.833 112.141 C 315.833 112.218,315.992 112.425,316.186 112.599 C 316.380 112.774,316.592 113.059,316.657 113.233 C 316.770 113.534,316.792 113.531,317.128 113.169 C 317.367 112.913,317.578 112.828,317.782 112.907 C 318.064 113.016,318.065 113.037,317.801 113.232 C 317.540 113.424,317.550 113.474,317.926 113.879 C 318.150 114.121,318.333 114.472,318.333 114.659 C 318.333 115.056,318.080 115.114,317.940 114.750 C 317.887 114.612,317.766 114.500,317.672 114.500 C 317.393 114.500,317.476 114.955,317.776 115.070 C 318.020 115.164,318.009 115.217,317.682 115.522 C 317.258 115.916,317.002 115.817,317.351 115.394 C 317.531 115.175,317.537 115.097,317.375 115.042 C 317.260 115.004,317.167 114.866,317.167 114.736 C 317.167 114.402,316.956 114.443,316.611 114.846 C 316.370 115.127,316.353 115.240,316.521 115.442 C 316.687 115.642,316.685 115.719,316.510 115.827 C 316.191 116.025,316.452 116.333,316.938 116.333 C 317.378 116.333,317.881 116.722,317.937 117.106 C 317.999 117.529,317.703 117.499,317.595 117.071 C 317.515 116.751,317.397 116.658,317.121 116.698 C 316.686 116.760,316.524 117.324,316.884 117.525 C 317.033 117.609,317.100 117.801,317.049 117.998 C 317.001 118.180,316.904 118.294,316.833 118.250 C 316.763 118.206,316.666 118.320,316.618 118.502 C 316.562 118.717,316.614 118.833,316.766 118.833 C 316.895 118.833,317.000 118.908,317.000 119.000 C 317.000 119.092,316.850 119.167,316.667 119.167 C 316.483 119.167,316.333 119.092,316.333 119.000 C 316.333 118.908,316.221 118.833,316.083 118.833 C 315.756 118.833,315.763 118.505,316.096 118.261 C 316.270 118.134,316.341 117.876,316.305 117.503 C 316.252 116.960,316.238 116.949,315.954 117.235 C 315.713 117.477,315.610 117.494,315.408 117.326 C 314.935 116.933,314.963 117.317,315.439 117.753 C 315.758 118.044,315.847 118.218,315.708 118.275 C 315.462 118.377,315.427 118.833,315.666 118.833 C 316.002 118.833,315.719 119.555,315.361 119.610 C 315.073 119.653,315.000 119.581,315.000 119.249 C 315.000 118.940,314.912 118.833,314.655 118.833 C 314.286 118.833,313.833 119.194,313.833 119.488 C 313.833 119.753,314.018 119.705,314.268 119.375 C 314.479 119.097,314.490 119.097,314.495 119.375 C 314.498 119.535,314.621 119.667,314.768 119.667 C 314.920 119.667,315.000 119.761,314.952 119.885 C 314.856 120.136,315.771 120.069,315.929 119.814 C 316.132 119.484,316.625 119.667,316.625 120.072 C 316.625 120.454,316.575 120.475,315.736 120.447 C 314.875 120.418,314.855 120.427,315.092 120.750 C 315.227 120.933,315.409 121.252,315.498 121.458 C 315.714 121.964,315.973 121.935,315.874 121.417 C 315.816 121.111,315.866 121.000,316.064 121.000 C 316.212 121.000,316.333 121.075,316.333 121.167 C 316.333 121.258,316.408 121.333,316.500 121.333 C 316.592 121.333,316.667 121.188,316.667 121.010 C 316.667 120.589,316.973 120.402,317.104 120.743 C 317.166 120.905,317.036 121.176,316.769 121.443 C 316.529 121.683,316.333 122.056,316.333 122.273 C 316.333 122.585,316.244 122.667,315.903 122.667 C 315.644 122.667,315.499 122.746,315.538 122.865 C 315.643 123.178,315.939 123.204,316.219 122.924 C 316.360 122.783,316.561 122.667,316.665 122.667 C 316.768 122.667,316.815 122.605,316.768 122.530 C 316.689 122.401,317.228 121.833,317.430 121.833 C 317.481 121.833,317.497 122.002,317.466 122.208 C 317.434 122.415,317.329 122.569,317.232 122.551 C 317.135 122.533,317.056 122.627,317.056 122.759 C 317.056 122.892,317.156 123.000,317.278 123.000 C 317.404 123.000,317.500 123.181,317.500 123.417 C 317.500 123.838,317.273 123.974,317.083 123.667 C 316.935 123.426,316.384 123.462,316.285 123.719 C 316.224 123.877,316.335 123.918,316.684 123.866 C 317.184 123.793,317.371 124.099,316.930 124.268 C 316.471 124.444,316.514 124.830,317.048 125.330 L 317.583 125.832 317.125 125.833 C 316.778 125.833,316.667 125.753,316.667 125.500 C 316.667 125.229,316.556 125.167,316.069 125.167 C 315.665 125.167,315.495 125.234,315.542 125.375 C 315.581 125.490,315.732 125.584,315.878 125.585 C 316.024 125.587,316.198 125.643,316.266 125.710 C 316.334 125.778,316.195 125.833,315.958 125.833 C 315.722 125.833,315.493 125.740,315.451 125.625 C 315.390 125.458,315.331 125.458,315.154 125.625 C 315.033 125.740,314.742 125.851,314.508 125.872 C 313.375 125.974,336.850 126.091,366.458 126.130 L 399.333 126.173 399.333 117.086 L 399.333 108.000 360.292 108.035 C 338.819 108.054,320.087 108.114,318.667 108.167 M313.333 108.333 C 313.656 108.542,313.833 108.542,313.833 108.333 C 313.833 108.242,313.665 108.168,313.458 108.169 C 313.155 108.171,313.131 108.203,313.333 108.333 M314.532 108.346 C 314.565 108.444,314.646 108.519,314.712 108.513 C 314.779 108.506,314.983 108.500,315.167 108.500 C 315.350 108.500,315.500 108.425,315.500 108.333 C 315.500 108.242,315.269 108.167,314.986 108.167 C 314.694 108.167,314.498 108.244,314.532 108.346 M318.070 108.434 C 318.215 108.490,318.333 108.640,318.333 108.768 C 318.333 109.059,317.565 109.079,317.431 108.792 C 317.353 108.625,317.314 108.625,317.236 108.792 C 317.183 108.906,317.020 109.000,316.874 109.000 C 316.650 109.000,316.659 108.949,316.929 108.677 C 317.264 108.339,317.623 108.263,318.070 108.434 M314.932 109.361 C 314.720 109.608,314.688 109.755,314.819 109.886 C 314.949 110.016,315.000 109.987,315.000 109.783 C 315.000 109.627,315.112 109.500,315.250 109.500 C 315.517 109.500,315.590 109.242,315.363 109.102 C 315.288 109.055,315.094 109.172,314.932 109.361 M317.917 110.266 C 317.917 110.974,317.616 111.317,317.530 110.708 C 317.501 110.502,317.416 110.333,317.343 110.333 C 317.269 110.333,317.208 110.148,317.208 109.921 C 317.208 109.595,317.282 109.520,317.563 109.562 C 317.854 109.607,317.917 109.731,317.917 110.266 M315.905 110.519 C 315.842 110.621,315.894 110.776,316.020 110.865 C 316.198 110.989,316.203 111.045,316.042 111.110 C 315.673 111.259,315.813 111.667,316.232 111.667 C 316.660 111.667,316.845 111.391,316.751 110.893 C 316.718 110.723,316.686 110.527,316.679 110.458 C 316.659 110.263,316.033 110.312,315.905 110.519 M314.288 112.101 C 314.107 112.282,314.326 112.500,314.690 112.500 C 314.886 112.500,314.999 112.413,314.958 112.292 C 314.879 112.054,314.456 111.933,314.288 112.101 M314.667 113.760 C 314.667 114.002,314.739 114.142,314.833 114.083 C 314.925 114.027,315.000 113.835,315.000 113.657 C 315.000 113.479,314.925 113.333,314.833 113.333 C 314.742 113.333,314.667 113.525,314.667 113.760 M315.772 113.975 C 315.524 114.250,315.385 115.000,315.583 115.000 C 315.769 115.000,316.333 114.317,316.333 114.093 C 316.333 113.707,316.066 113.651,315.772 113.975 M314.866 115.758 C 314.631 116.026,314.732 116.333,315.056 116.333 C 315.245 116.333,315.833 115.764,315.833 115.581 C 315.833 115.392,315.065 115.533,314.866 115.758 M313.849 115.898 C 313.713 116.062,313.706 116.171,313.826 116.246 C 313.923 116.306,314.049 116.234,314.105 116.087 C 314.246 115.720,314.091 115.606,313.849 115.898 M314.128 117.701 C 314.009 118.024,314.163 118.333,314.442 118.333 C 314.602 118.333,314.671 118.204,314.637 117.971 C 314.575 117.556,314.246 117.381,314.128 117.701 M315.090 123.155 C 314.977 123.339,315.240 123.538,315.393 123.384 C 315.552 123.226,315.522 123.000,315.343 123.000 C 315.257 123.000,315.143 123.070,315.090 123.155 M318.000 124.343 C 318.000 124.691,317.755 124.777,317.578 124.492 C 317.427 124.247,317.629 123.790,317.832 123.916 C 317.924 123.973,318.000 124.165,318.000 124.343 M314.542 124.284 C 314.312 124.329,314.167 124.477,314.167 124.668 C 314.167 125.077,314.474 125.261,314.602 124.928 C 314.657 124.785,314.772 124.712,314.858 124.765 C 314.944 124.819,315.127 124.768,315.265 124.654 C 315.497 124.462,315.300 124.119,315.000 124.192 C 314.954 124.203,314.748 124.245,314.542 124.284 M312.875 125.948 C 313.035 125.990,313.298 125.990,313.458 125.948 C 313.619 125.906,313.487 125.872,313.167 125.872 C 312.846 125.872,312.715 125.906,312.875 125.948 " stroke="none" fill="#d6ee2a" fill-rule="evenodd"></path><path id="path1" d="M144.833 108.169 C 143.296 108.267,144.085 108.448,145.748 108.379 C 146.022 108.368,146.303 108.447,146.373 108.554 C 146.468 108.701,146.535 108.696,146.641 108.532 C 146.834 108.232,147.660 108.370,147.937 108.749 C 148.061 108.920,148.220 108.998,148.290 108.923 C 148.360 108.849,148.323 108.754,148.208 108.713 C 147.712 108.536,148.056 108.401,148.583 108.566 C 149.218 108.764,149.359 109.000,148.843 109.000 C 148.409 109.000,148.280 109.248,148.583 109.500 C 148.719 109.612,148.789 109.771,148.738 109.852 C 148.585 110.101,148.333 110.017,148.333 109.717 C 148.333 109.513,148.282 109.484,148.153 109.614 C 148.023 109.744,148.198 110.011,148.775 110.564 C 149.676 111.428,149.704 111.439,150.079 111.063 C 150.451 110.692,150.590 110.891,150.243 111.297 C 149.974 111.610,149.333 111.630,149.333 111.325 C 149.333 111.250,149.127 111.165,148.875 111.136 C 148.547 111.098,148.402 110.977,148.363 110.708 C 148.292 110.208,148.000 110.227,148.000 110.732 C 148.000 110.952,147.887 111.174,147.750 111.227 C 147.266 111.412,147.507 111.667,148.167 111.667 C 148.926 111.667,148.957 111.710,148.511 112.156 C 148.235 112.432,148.161 112.444,147.991 112.239 C 147.693 111.880,147.500 111.950,147.500 112.417 C 147.500 112.851,148.187 113.039,148.417 112.667 C 148.473 112.575,148.778 112.500,149.093 112.500 C 149.409 112.500,149.667 112.575,149.667 112.667 C 149.667 112.758,149.592 112.833,149.500 112.833 C 149.190 112.833,149.331 113.253,149.747 113.565 C 149.974 113.736,150.115 113.949,150.059 114.039 C 150.004 114.129,149.790 114.007,149.585 113.768 C 149.139 113.249,149.084 113.242,148.646 113.651 C 148.321 113.953,148.319 113.976,148.607 114.137 C 148.894 114.297,148.895 114.322,148.622 114.624 C 148.463 114.800,148.333 115.128,148.333 115.355 C 148.333 115.581,148.257 115.843,148.163 115.937 C 148.046 116.054,148.103 116.208,148.340 116.422 C 148.635 116.690,148.709 116.701,148.837 116.495 C 148.951 116.309,149.032 116.299,149.182 116.449 C 149.524 116.791,149.223 117.167,148.606 117.167 C 148.003 117.167,147.758 117.451,148.018 117.848 C 148.147 118.044,148.202 118.034,148.347 117.788 C 148.442 117.626,148.592 117.537,148.680 117.591 C 148.767 117.645,148.796 117.760,148.743 117.845 C 148.690 117.931,148.948 118.000,149.323 118.000 C 149.696 118.000,150.000 118.075,150.000 118.167 C 150.000 118.258,149.831 118.333,149.625 118.333 C 149.295 118.333,149.250 118.418,149.250 119.042 C 149.250 119.860,149.461 120.332,149.674 119.988 C 149.835 119.728,150.500 119.604,150.500 119.834 C 150.500 119.925,150.425 120.000,150.333 120.000 C 150.093 120.000,150.128 120.458,150.375 120.547 C 150.490 120.588,150.531 120.678,150.466 120.747 C 150.402 120.816,150.224 120.748,150.072 120.596 C 149.919 120.443,149.714 120.345,149.616 120.378 C 149.235 120.505,148.888 119.893,148.902 119.119 C 148.913 118.520,148.852 118.334,148.625 118.274 C 148.403 118.216,148.333 118.300,148.333 118.627 C 148.333 118.864,148.209 119.194,148.058 119.362 C 147.801 119.645,147.801 119.667,148.058 119.667 C 148.209 119.667,148.333 119.742,148.333 119.833 C 148.333 119.925,148.187 120.000,148.008 120.000 C 147.830 120.000,147.605 120.131,147.508 120.292 C 147.342 120.569,147.325 120.569,147.158 120.292 C 147.062 120.131,146.857 120.000,146.702 120.000 C 146.486 120.000,146.531 120.103,146.894 120.440 C 147.248 120.767,147.402 120.826,147.499 120.668 C 147.572 120.550,147.721 120.514,147.836 120.585 C 147.992 120.681,147.976 120.750,147.771 120.865 C 147.622 120.948,147.500 121.155,147.500 121.324 C 147.500 121.493,147.318 121.806,147.097 122.020 C 146.681 122.420,146.677 122.667,147.088 122.667 C 147.228 122.667,147.284 122.566,147.227 122.417 C 147.157 122.234,147.248 122.167,147.566 122.167 C 147.877 122.167,148.000 122.079,148.000 121.859 C 148.000 121.512,148.609 120.887,148.781 121.058 C 148.842 121.120,148.754 121.271,148.586 121.394 C 148.398 121.531,148.320 121.725,148.384 121.893 C 148.499 122.190,148.833 122.270,148.833 122.000 C 148.833 121.699,149.126 121.826,149.214 122.165 C 149.262 122.347,149.501 122.572,149.746 122.665 C 150.262 122.861,150.269 123.416,149.756 123.416 C 149.549 123.417,149.397 123.566,149.334 123.833 C 149.227 124.284,148.370 124.474,148.464 124.026 C 148.489 123.903,148.414 123.834,148.297 123.872 C 148.179 123.911,148.059 124.110,148.029 124.314 C 147.929 124.993,147.583 124.575,147.583 123.776 C 147.583 122.699,147.262 122.895,147.198 124.011 C 147.170 124.507,147.035 125.036,146.899 125.186 C 146.530 125.594,147.104 125.775,147.534 125.386 C 147.808 125.138,147.875 125.131,148.003 125.339 C 148.122 125.531,148.195 125.538,148.360 125.374 C 148.693 125.040,149.116 125.133,149.503 125.625 L 149.863 126.083 195.557 126.088 C 220.688 126.090,237.879 126.071,233.759 126.044 C 228.026 126.008,226.236 125.948,226.134 125.790 C 226.029 125.628,225.969 125.631,225.857 125.805 C 225.776 125.931,225.505 126.003,225.232 125.972 L 224.750 125.917 225.300 125.390 C 225.603 125.101,225.777 124.818,225.686 124.762 C 225.595 124.706,225.449 124.787,225.362 124.942 C 225.221 125.196,225.162 125.179,224.791 124.779 C 224.389 124.345,223.667 124.166,223.667 124.500 C 223.667 124.592,223.817 124.667,224.000 124.667 C 224.295 124.667,225.000 125.196,225.000 125.417 C 225.000 125.574,224.186 125.500,224.083 125.333 C 224.027 125.242,223.843 125.167,223.675 125.167 C 223.507 125.167,223.326 125.054,223.273 124.917 C 223.213 124.760,222.958 124.667,222.589 124.667 C 222.265 124.667,222.000 124.592,222.000 124.500 C 222.000 124.408,222.141 124.333,222.313 124.333 C 222.485 124.333,222.719 124.221,222.833 124.083 C 222.947 123.946,223.182 123.833,223.354 123.833 C 223.526 123.833,223.667 123.758,223.667 123.667 C 223.667 123.426,224.125 123.461,224.213 123.708 C 224.257 123.830,224.350 123.855,224.436 123.769 C 224.521 123.683,224.496 123.590,224.375 123.547 C 224.260 123.506,224.167 123.366,224.167 123.236 C 224.167 122.918,224.937 122.930,225.060 123.250 C 225.113 123.388,225.254 123.500,225.374 123.500 C 225.654 123.500,226.228 122.836,226.072 122.692 C 226.008 122.632,225.921 122.677,225.880 122.792 C 225.768 123.104,225.090 123.042,224.772 122.691 C 224.527 122.420,224.522 122.356,224.736 122.178 C 224.871 122.067,225.004 121.737,225.032 121.446 C 225.072 121.037,225.172 120.904,225.472 120.862 C 225.844 120.809,225.849 120.793,225.571 120.487 C 225.221 120.100,225.000 120.076,225.000 120.425 C 225.000 120.567,224.813 120.856,224.583 121.069 C 224.254 121.374,224.167 121.617,224.167 122.227 C 224.167 122.803,224.103 123.000,223.917 123.000 C 223.420 123.000,223.581 121.092,224.112 120.674 C 224.452 120.406,224.511 120.278,224.362 120.129 C 224.043 119.810,224.136 119.667,224.661 119.667 C 225.341 119.667,226.288 118.764,225.988 118.402 C 225.831 118.213,225.828 118.106,225.974 117.960 C 226.302 117.631,226.190 117.500,225.583 117.500 C 225.124 117.500,225.000 117.566,225.000 117.813 C 225.000 117.985,224.884 118.222,224.743 118.339 C 224.565 118.487,224.539 118.606,224.660 118.726 C 224.928 118.995,224.866 119.167,224.500 119.167 C 224.249 119.167,224.165 119.054,224.161 118.708 C 224.153 118.044,223.531 117.320,223.308 117.717 C 223.219 117.877,223.070 117.960,222.977 117.903 C 222.878 117.841,222.964 117.653,223.184 117.448 C 223.436 117.213,223.582 117.164,223.627 117.299 C 223.703 117.526,224.500 117.578,224.500 117.356 C 224.500 117.277,224.302 117.014,224.061 116.773 C 223.722 116.434,223.684 116.333,223.894 116.333 C 224.044 116.333,224.167 116.253,224.167 116.155 C 224.167 115.825,224.613 115.525,225.184 115.471 C 225.775 115.414,225.903 115.127,225.384 115.023 C 225.219 114.990,225.022 114.857,224.948 114.728 C 224.773 114.423,224.500 114.595,224.500 115.010 C 224.500 115.188,224.425 115.333,224.333 115.333 C 224.242 115.333,224.167 115.120,224.167 114.859 C 224.167 114.327,224.609 113.333,224.846 113.333 C 224.930 113.333,225.000 113.221,225.000 113.083 C 225.000 112.946,225.075 112.833,225.167 112.833 C 225.406 112.833,225.373 113.287,225.125 113.403 C 224.958 113.481,224.958 113.519,225.125 113.597 C 225.240 113.651,225.333 113.876,225.333 114.097 C 225.333 114.344,225.430 114.500,225.583 114.500 C 225.929 114.500,225.898 113.889,225.542 113.675 C 225.266 113.509,225.266 113.490,225.556 113.317 C 225.847 113.143,225.843 113.117,225.484 112.783 C 225.231 112.547,225.084 112.497,225.039 112.632 C 224.959 112.874,224.500 112.903,224.500 112.667 C 224.500 112.575,224.181 112.498,223.792 112.495 C 223.217 112.490,222.981 112.387,222.540 111.942 L 221.996 111.395 222.415 111.002 C 222.645 110.786,222.833 110.472,222.833 110.304 C 222.833 109.946,223.476 109.883,223.821 110.208 C 223.998 110.375,224.057 110.375,224.118 110.208 C 224.160 110.094,224.444 110.000,224.750 110.000 C 225.056 110.000,225.341 110.094,225.383 110.208 C 225.437 110.353,225.578 110.304,225.846 110.046 C 226.058 109.843,226.179 109.623,226.114 109.558 C 226.049 109.494,225.890 109.586,225.760 109.762 C 225.540 110.062,225.516 110.064,225.411 109.792 C 225.334 109.593,225.117 109.500,224.732 109.500 C 224.147 109.500,223.864 108.803,224.375 108.620 C 224.490 108.579,224.534 108.492,224.474 108.428 C 224.309 108.249,223.667 108.866,223.667 109.204 C 223.667 109.367,223.603 109.500,223.526 109.500 C 223.293 109.500,222.833 108.910,222.833 108.612 C 222.833 108.358,222.316 108.330,216.875 108.294 L 210.917 108.255 219.250 108.165 C 223.833 108.116,209.321 108.075,187.000 108.073 C 164.679 108.071,145.704 108.114,144.833 108.169 M150.291 108.693 C 150.129 108.793,150.129 108.863,150.293 109.026 C 150.622 109.355,150.541 109.444,149.917 109.444 C 149.392 109.444,149.333 109.398,149.333 108.989 C 149.333 108.576,149.388 108.535,149.915 108.549 C 150.255 108.559,150.411 108.619,150.291 108.693 M146.222 109.250 C 146.222 109.388,146.322 109.500,146.444 109.500 C 146.567 109.500,146.667 109.388,146.667 109.250 C 146.667 109.112,146.567 109.000,146.444 109.000 C 146.322 109.000,146.222 109.112,146.222 109.250 M222.793 109.208 C 222.713 109.450,222.000 109.597,222.000 109.373 C 222.000 109.135,222.196 109.000,222.542 109.000 C 222.723 109.000,222.831 109.090,222.793 109.208 M150.000 110.095 C 150.000 110.148,149.884 110.307,149.742 110.448 C 149.417 110.774,149.221 110.611,149.525 110.267 C 149.752 110.010,150.000 109.920,150.000 110.095 M224.167 110.657 C 224.167 111.071,223.839 111.279,223.655 110.981 C 223.543 110.799,223.472 110.795,223.307 110.960 C 223.193 111.074,222.927 111.167,222.717 111.167 C 222.487 111.167,222.333 111.267,222.333 111.417 C 222.333 111.554,222.440 111.667,222.569 111.667 C 222.699 111.667,222.834 111.752,222.869 111.856 C 222.914 111.991,223.038 111.979,223.299 111.816 C 223.595 111.631,223.731 111.627,223.998 111.793 C 224.528 112.124,225.175 112.039,225.598 111.583 C 225.810 111.354,226.096 111.167,226.232 111.167 C 226.369 111.167,226.527 111.092,226.583 111.000 C 226.642 110.905,226.502 110.833,226.260 110.833 C 226.025 110.833,225.833 110.908,225.833 111.000 C 225.833 111.092,225.721 111.167,225.583 111.167 C 225.428 111.167,225.333 111.009,225.333 110.750 C 225.333 110.385,225.261 110.333,224.750 110.333 C 224.284 110.333,224.167 110.398,224.167 110.657 M145.833 111.000 C 145.833 111.092,145.946 111.167,146.083 111.167 C 146.221 111.167,146.333 111.092,146.333 111.000 C 146.333 110.908,146.221 110.833,146.083 110.833 C 145.946 110.833,145.833 110.908,145.833 111.000 M225.042 111.065 C 225.453 111.378,225.406 111.700,224.958 111.637 C 224.717 111.602,224.564 111.449,224.530 111.208 C 224.470 110.784,224.617 110.743,225.042 111.065 M221.656 111.946 C 221.836 112.100,221.941 112.293,221.891 112.376 C 221.840 112.458,221.656 112.373,221.482 112.186 C 220.970 111.636,221.094 111.465,221.656 111.946 M222.430 113.125 C 222.635 113.401,222.659 113.400,222.882 113.098 C 223.033 112.895,223.222 112.819,223.403 112.888 C 223.760 113.025,223.590 113.333,223.157 113.333 C 222.948 113.333,222.833 113.448,222.833 113.657 C 222.833 113.835,222.771 114.019,222.696 114.065 C 222.522 114.173,221.476 113.079,221.618 112.938 C 221.814 112.741,222.213 112.833,222.430 113.125 M147.708 113.542 C 147.747 113.656,147.878 113.750,148.000 113.750 C 148.122 113.750,148.253 113.656,148.292 113.542 C 148.333 113.418,148.215 113.333,148.000 113.333 C 147.785 113.333,147.667 113.418,147.708 113.542 M145.933 113.807 C 145.875 113.901,145.909 114.027,146.008 114.089 C 146.265 114.247,146.430 114.030,146.216 113.816 C 146.096 113.696,146.003 113.693,145.933 113.807 M146.734 113.898 C 146.625 114.181,146.771 114.500,147.010 114.500 C 147.220 114.500,147.211 113.880,146.999 113.749 C 146.907 113.692,146.787 113.759,146.734 113.898 M224.125 113.958 C 224.169 114.089,224.034 114.167,223.764 114.167 C 223.343 114.167,223.216 114.006,223.450 113.772 C 223.622 113.601,224.045 113.717,224.125 113.958 M149.809 114.920 C 150.120 115.247,150.146 115.333,149.934 115.333 C 149.787 115.333,149.667 115.258,149.667 115.167 C 149.667 114.744,149.349 115.060,149.302 115.529 C 149.211 116.450,148.833 116.304,148.833 115.347 C 148.833 114.359,149.147 114.221,149.809 114.920 M223.667 115.058 C 223.667 115.233,223.123 116.167,223.021 116.167 C 222.955 116.167,222.818 116.085,222.719 115.985 C 222.588 115.855,222.506 115.855,222.426 115.985 C 222.244 116.280,222.000 116.193,222.000 115.833 C 222.000 115.556,222.111 115.500,222.667 115.500 C 223.148 115.500,223.333 115.431,223.333 115.250 C 223.333 115.112,223.408 115.000,223.500 115.000 C 223.592 115.000,223.667 115.026,223.667 115.058 M145.537 116.028 C 145.623 116.286,146.147 116.329,146.208 116.083 C 146.231 115.992,146.073 115.892,145.856 115.861 C 145.587 115.823,145.486 115.875,145.537 116.028 M146.958 116.245 C 146.601 116.737,146.581 117.167,146.917 117.167 C 147.054 117.167,147.167 117.242,147.167 117.333 C 147.167 117.582,147.489 117.535,147.781 117.243 C 148.013 117.011,148.012 116.956,147.769 116.688 C 147.621 116.524,147.500 116.265,147.500 116.112 C 147.500 115.724,147.302 115.773,146.958 116.245 M224.500 116.069 C 224.500 116.199,224.406 116.339,224.292 116.380 C 224.177 116.421,224.144 116.519,224.217 116.597 C 224.291 116.676,224.414 116.639,224.490 116.515 C 224.655 116.250,225.000 116.416,225.000 116.760 C 225.000 116.892,225.075 117.000,225.167 117.000 C 225.258 117.000,225.333 116.737,225.333 116.417 C 225.333 115.906,225.282 115.833,224.917 115.833 C 224.668 115.833,224.500 115.929,224.500 116.069 M150.449 117.440 C 150.315 117.574,149.674 116.956,149.776 116.791 C 149.827 116.709,150.018 116.802,150.201 116.998 C 150.384 117.195,150.496 117.393,150.449 117.440 M225.833 118.583 C 225.833 118.721,225.763 118.833,225.677 118.833 C 225.466 118.833,225.316 118.573,225.449 118.440 C 225.637 118.252,225.833 118.326,225.833 118.583 M146.609 119.138 C 146.295 119.485,146.258 119.667,146.500 119.667 C 146.592 119.667,146.667 119.554,146.667 119.417 C 146.667 119.054,146.980 119.110,147.360 119.542 L 147.691 119.917 147.393 119.375 C 147.047 118.747,146.981 118.727,146.609 119.138 M223.576 119.322 C 223.629 119.407,223.592 119.526,223.495 119.587 C 223.248 119.739,222.789 119.539,222.916 119.335 C 223.046 119.124,223.449 119.116,223.576 119.322 M149.167 120.315 C 149.167 120.378,149.017 120.429,148.833 120.429 C 148.501 120.429,148.411 120.311,148.600 120.123 C 148.719 120.003,149.167 120.155,149.167 120.315 M224.167 120.250 C 224.167 120.388,224.096 120.500,224.010 120.500 C 223.800 120.500,223.649 120.240,223.782 120.107 C 223.970 119.919,224.167 119.992,224.167 120.250 M221.933 121.100 C 221.853 121.310,221.772 121.339,221.639 121.206 C 221.538 121.105,221.506 120.892,221.567 120.733 C 221.647 120.523,221.728 120.494,221.861 120.628 C 221.962 120.728,221.994 120.941,221.933 121.100 M150.167 121.333 C 150.167 121.519,150.056 121.667,149.917 121.667 C 149.778 121.667,149.667 121.519,149.667 121.333 C 149.667 121.148,149.778 121.000,149.917 121.000 C 150.056 121.000,150.167 121.148,150.167 121.333 M225.833 121.750 C 225.833 121.979,225.908 122.167,226.000 122.167 C 226.092 122.167,226.167 121.979,226.167 121.750 C 226.167 121.521,226.092 121.333,226.000 121.333 C 225.908 121.333,225.833 121.521,225.833 121.750 M223.333 122.833 C 223.333 123.455,223.120 123.575,222.746 123.163 C 222.460 122.846,222.460 122.820,222.746 122.504 C 223.120 122.091,223.333 122.211,223.333 122.833 M148.341 122.667 C 148.337 123.285,148.561 123.578,148.809 123.279 C 148.963 123.094,148.934 122.958,148.675 122.647 L 148.344 122.250 148.341 122.667 M145.500 124.500 C 145.500 124.592,145.692 124.667,145.927 124.667 C 146.168 124.667,146.308 124.595,146.250 124.500 C 146.193 124.408,146.001 124.333,145.823 124.333 C 145.646 124.333,145.500 124.408,145.500 124.500 M222.833 125.583 C 222.833 126.068,222.550 126.127,222.232 125.708 C 221.909 125.283,221.949 125.167,222.417 125.167 C 222.750 125.167,222.833 125.250,222.833 125.583 M148.451 125.604 C 148.204 125.852,148.352 126.000,148.847 126.000 C 149.184 126.000,149.337 125.928,149.293 125.792 C 149.215 125.555,148.630 125.425,148.451 125.604 M224.167 125.750 C 224.167 125.888,224.054 126.000,223.917 126.000 C 223.656 126.000,223.586 125.803,223.778 125.611 C 223.970 125.419,224.167 125.490,224.167 125.750 M241.542 126.115 C 241.702 126.157,241.965 126.157,242.125 126.115 C 242.285 126.073,242.154 126.039,241.833 126.039 C 241.512 126.039,241.381 126.073,241.542 126.115 M242.875 126.115 C 243.035 126.157,243.298 126.157,243.458 126.115 C 243.619 126.073,243.487 126.039,243.167 126.039 C 242.846 126.039,242.715 126.073,242.875 126.115 " stroke="none" fill="#bcdc2c" fill-rule="evenodd"></path><path id="path2" d="M254.333 108.168 C 245.304 108.214,241.198 108.271,245.208 108.293 C 251.859 108.330,253.084 108.407,252.226 108.736 C 252.076 108.794,252.000 108.889,252.058 108.947 C 252.117 109.006,252.319 108.914,252.507 108.744 C 252.975 108.320,253.333 108.293,253.333 108.681 C 253.333 109.060,253.470 109.075,253.907 108.745 C 254.085 108.610,254.310 108.501,254.407 108.503 C 254.504 108.504,254.471 108.576,254.335 108.662 C 254.137 108.787,254.128 108.862,254.293 109.026 C 254.407 109.140,254.500 109.371,254.500 109.539 C 254.500 109.706,254.631 109.884,254.792 109.934 C 254.952 109.984,255.225 110.101,255.397 110.194 C 255.626 110.318,255.748 110.305,255.847 110.145 C 255.921 110.025,256.040 109.984,256.111 110.056 C 256.182 110.127,256.135 110.250,256.006 110.330 C 255.812 110.450,255.809 110.520,255.989 110.737 C 256.157 110.939,256.162 111.054,256.012 111.235 C 255.879 111.396,255.872 111.504,255.992 111.578 C 256.088 111.638,256.167 111.883,256.167 112.124 L 256.167 112.562 255.699 112.115 C 255.442 111.868,255.105 111.667,254.949 111.667 C 254.640 111.667,254.569 111.920,254.833 112.083 C 254.925 112.140,255.000 112.320,255.000 112.484 C 255.000 113.262,255.841 113.522,256.402 112.917 C 256.906 112.373,257.545 112.348,257.470 112.875 C 257.427 113.176,257.294 113.260,256.792 113.302 C 256.243 113.347,256.167 113.406,256.167 113.786 C 256.167 114.194,256.150 114.203,255.861 113.942 C 255.530 113.643,255.333 113.727,255.333 114.169 C 255.333 114.522,254.815 115.000,254.431 115.000 C 253.922 115.000,254.252 115.414,254.805 115.469 C 255.095 115.498,255.333 115.591,255.333 115.677 C 255.333 115.974,255.595 115.831,256.254 115.172 C 256.619 114.808,256.984 114.508,257.066 114.505 C 257.309 114.497,258.381 115.676,258.245 115.802 C 258.177 115.865,258.088 115.823,258.047 115.708 C 257.915 115.338,257.500 115.481,257.500 115.896 C 257.500 116.160,257.652 116.369,257.958 116.524 C 258.210 116.651,258.435 116.848,258.458 116.961 C 258.518 117.254,258.175 117.216,258.060 116.917 C 258.008 116.779,257.879 116.664,257.774 116.661 C 257.332 116.649,256.947 115.835,257.234 115.518 C 257.599 115.114,257.569 115.000,257.093 115.000 C 256.744 115.000,256.680 115.088,256.635 115.625 C 256.577 116.321,255.624 116.683,255.398 116.094 C 255.262 115.741,254.167 115.732,254.167 116.083 C 254.167 116.225,254.316 116.333,254.512 116.333 C 255.148 116.333,255.647 117.286,255.167 117.583 C 254.963 117.709,254.944 118.333,255.144 118.333 C 255.223 118.333,255.486 118.136,255.727 117.894 C 256.066 117.555,256.167 117.517,256.167 117.727 C 256.167 117.877,256.279 118.000,256.417 118.000 C 256.554 118.000,256.667 118.075,256.667 118.167 C 256.667 118.258,256.596 118.333,256.510 118.333 C 256.424 118.333,256.307 118.258,256.250 118.167 C 256.035 117.820,255.833 118.022,255.833 118.583 C 255.833 119.162,255.452 119.424,255.287 118.958 C 255.239 118.822,255.064 118.908,254.781 119.208 C 254.276 119.745,254.167 119.773,254.167 119.370 C 254.167 119.207,254.014 118.943,253.828 118.784 C 253.323 118.352,252.265 119.288,252.731 119.754 C 252.887 119.911,253.069 119.983,253.133 119.914 C 253.197 119.844,253.156 119.754,253.042 119.713 C 252.747 119.608,252.783 119.325,253.125 119.065 C 253.574 118.725,253.667 118.785,253.667 119.417 C 253.667 119.928,253.718 120.000,254.083 120.000 C 254.313 120.000,254.500 119.925,254.500 119.833 C 254.500 119.742,254.612 119.667,254.750 119.667 C 254.887 119.667,255.000 119.554,255.000 119.417 C 255.000 119.279,255.075 119.167,255.167 119.167 C 255.258 119.167,255.333 119.279,255.333 119.417 C 255.333 119.554,255.258 119.667,255.167 119.667 C 255.075 119.667,255.000 120.042,255.000 120.500 C 255.000 120.958,255.075 121.333,255.167 121.333 C 255.258 121.333,255.333 121.460,255.333 121.616 C 255.333 121.771,255.536 122.110,255.784 122.369 L 256.235 122.839 255.874 123.200 C 255.550 123.524,255.502 123.532,255.405 123.281 C 255.264 122.912,254.681 122.920,254.566 123.292 C 254.516 123.452,254.406 123.714,254.321 123.873 C 254.118 124.254,254.124 124.667,254.333 124.667 C 254.574 124.667,254.539 125.125,254.292 125.213 C 254.177 125.254,254.144 125.352,254.217 125.431 C 254.291 125.509,254.420 125.463,254.504 125.329 C 254.631 125.122,254.716 125.145,255.036 125.470 L 255.417 125.857 254.000 125.829 C 253.221 125.813,252.283 125.823,251.917 125.852 C 250.054 125.997,269.432 126.095,299.583 126.094 C 318.100 126.093,328.938 126.052,323.667 126.002 C 318.396 125.953,314.275 125.895,314.508 125.873 C 314.742 125.851,315.033 125.740,315.154 125.625 C 315.331 125.458,315.390 125.458,315.451 125.625 C 315.493 125.740,315.722 125.833,315.958 125.833 C 316.195 125.833,316.334 125.778,316.266 125.710 C 316.198 125.643,316.024 125.587,315.878 125.585 C 315.732 125.584,315.581 125.490,315.542 125.375 C 315.495 125.234,315.665 125.167,316.069 125.167 C 316.556 125.167,316.667 125.229,316.667 125.500 C 316.667 125.753,316.778 125.833,317.125 125.833 L 317.583 125.832 317.048 125.330 C 316.514 124.830,316.471 124.444,316.930 124.268 C 317.371 124.099,317.184 123.793,316.684 123.866 C 316.335 123.918,316.224 123.877,316.285 123.719 C 316.384 123.462,316.935 123.426,317.083 123.667 C 317.273 123.974,317.500 123.838,317.500 123.417 C 317.500 123.181,317.404 123.000,317.278 123.000 C 317.156 123.000,317.056 122.892,317.056 122.759 C 317.056 122.627,317.135 122.533,317.232 122.551 C 317.329 122.569,317.434 122.415,317.466 122.208 C 317.497 122.002,317.481 121.833,317.430 121.833 C 317.228 121.833,316.689 122.401,316.768 122.530 C 316.815 122.605,316.768 122.667,316.665 122.667 C 316.561 122.667,316.360 122.783,316.219 122.924 C 315.939 123.204,315.643 123.178,315.538 122.865 C 315.499 122.746,315.644 122.667,315.903 122.667 C 316.244 122.667,316.333 122.585,316.333 122.273 C 316.333 122.056,316.529 121.683,316.769 121.443 C 317.036 121.176,317.166 120.905,317.104 120.743 C 316.973 120.402,316.667 120.589,316.667 121.010 C 316.667 121.188,316.592 121.333,316.500 121.333 C 316.408 121.333,316.333 121.258,316.333 121.167 C 316.333 121.075,316.212 121.000,316.064 121.000 C 315.866 121.000,315.816 121.111,315.874 121.417 C 315.973 121.935,315.714 121.964,315.498 121.458 C 315.409 121.252,315.227 120.933,315.092 120.750 C 314.855 120.427,314.875 120.418,315.736 120.447 C 316.575 120.475,316.625 120.454,316.625 120.072 C 316.625 119.667,316.132 119.484,315.929 119.814 C 315.771 120.069,314.856 120.136,314.952 119.885 C 315.000 119.761,314.920 119.667,314.768 119.667 C 314.621 119.667,314.498 119.535,314.495 119.375 C 314.490 119.097,314.479 119.097,314.268 119.375 C 314.018 119.705,313.833 119.753,313.833 119.488 C 313.833 119.194,314.286 118.833,314.655 118.833 C 314.912 118.833,315.000 118.940,315.000 119.249 C 315.000 119.581,315.073 119.653,315.361 119.610 C 315.719 119.555,316.002 118.833,315.666 118.833 C 315.427 118.833,315.462 118.377,315.708 118.275 C 315.847 118.218,315.758 118.044,315.439 117.753 C 314.963 117.317,314.935 116.933,315.408 117.326 C 315.610 117.494,315.713 117.477,315.954 117.235 C 316.238 116.949,316.252 116.960,316.305 117.503 C 316.341 117.876,316.270 118.134,316.096 118.261 C 315.763 118.505,315.756 118.833,316.083 118.833 C 316.221 118.833,316.333 118.908,316.333 119.000 C 316.333 119.092,316.483 119.167,316.667 119.167 C 316.850 119.167,317.000 119.092,317.000 119.000 C 317.000 118.908,316.895 118.833,316.766 118.833 C 316.614 118.833,316.562 118.717,316.618 118.502 C 316.666 118.320,316.763 118.206,316.833 118.250 C 316.904 118.294,317.001 118.180,317.049 117.998 C 317.100 117.801,317.033 117.609,316.884 117.525 C 316.524 117.324,316.686 116.760,317.121 116.698 C 317.397 116.658,317.515 116.751,317.595 117.071 C 317.703 117.499,317.999 117.529,317.937 117.106 C 317.881 116.722,317.378 116.333,316.938 116.333 C 316.452 116.333,316.191 116.025,316.510 115.827 C 316.685 115.719,316.687 115.642,316.521 115.442 C 316.353 115.240,316.370 115.127,316.611 114.846 C 316.956 114.443,317.167 114.402,317.167 114.736 C 317.167 114.866,317.260 115.004,317.375 115.042 C 317.537 115.097,317.531 115.175,317.351 115.394 C 317.002 115.817,317.258 115.916,317.682 115.522 C 318.009 115.217,318.020 115.164,317.776 115.070 C 317.476 114.955,317.393 114.500,317.672 114.500 C 317.766 114.500,317.887 114.612,317.940 114.750 C 318.080 115.114,318.333 115.056,318.333 114.659 C 318.333 114.472,318.150 114.121,317.926 113.879 C 317.550 113.474,317.540 113.424,317.801 113.232 C 318.065 113.037,318.064 113.016,317.782 112.907 C 317.578 112.828,317.367 112.913,317.128 113.169 C 316.792 113.531,316.770 113.534,316.657 113.233 C 316.592 113.059,316.380 112.774,316.186 112.599 C 315.992 112.425,315.833 112.218,315.833 112.141 C 315.833 111.887,316.628 111.993,316.731 112.261 C 316.787 112.406,316.916 112.468,317.024 112.402 C 317.158 112.319,317.121 112.212,316.901 112.051 C 316.638 111.859,316.625 111.796,316.822 111.673 C 317.130 111.483,317.180 110.495,316.888 110.383 C 316.764 110.335,316.667 110.049,316.667 109.732 C 316.667 109.421,316.592 109.167,316.500 109.167 C 316.408 109.167,316.333 109.242,316.333 109.333 C 316.333 109.595,315.880 109.528,315.774 109.251 C 315.720 109.113,315.837 108.854,316.037 108.668 C 316.235 108.484,316.326 108.318,316.240 108.298 C 316.154 108.279,317.246 108.219,318.667 108.166 C 321.786 108.048,277.265 108.050,254.333 108.168 M236.875 108.282 C 237.035 108.323,237.298 108.323,237.458 108.282 C 237.619 108.240,237.487 108.205,237.167 108.205 C 236.846 108.205,236.715 108.240,236.875 108.282 M313.833 108.333 C 313.833 108.542,313.656 108.542,313.333 108.333 C 313.131 108.203,313.155 108.171,313.458 108.169 C 313.665 108.168,313.833 108.242,313.833 108.333 M315.500 108.333 C 315.500 108.425,315.350 108.500,315.167 108.500 C 314.983 108.500,314.779 108.506,314.712 108.513 C 314.646 108.519,314.565 108.444,314.532 108.346 C 314.498 108.244,314.694 108.167,314.986 108.167 C 315.269 108.167,315.500 108.242,315.500 108.333 M255.833 108.768 C 255.833 108.904,255.662 109.000,255.417 109.000 C 254.949 109.000,254.907 108.919,255.207 108.597 C 255.453 108.334,255.833 108.438,255.833 108.768 M316.929 108.677 C 316.659 108.949,316.650 109.000,316.874 109.000 C 317.020 109.000,317.183 108.906,317.236 108.792 C 317.314 108.625,317.353 108.625,317.431 108.792 C 317.565 109.079,318.333 109.059,318.333 108.768 C 318.333 108.262,317.401 108.201,316.929 108.677 M257.601 108.958 C 257.948 109.415,257.871 109.603,257.500 109.205 C 257.317 109.008,257.167 108.807,257.167 108.757 C 257.167 108.573,257.386 108.675,257.601 108.958 M253.700 109.875 C 253.763 110.977,254.067 110.949,254.134 109.836 C 254.175 109.159,254.133 109.000,253.917 109.000 C 253.699 109.000,253.659 109.162,253.700 109.875 M315.500 109.343 C 315.500 109.429,315.387 109.500,315.250 109.500 C 315.112 109.500,315.000 109.627,315.000 109.783 C 315.000 109.987,314.949 110.016,314.819 109.886 C 314.688 109.755,314.720 109.608,314.932 109.361 C 315.216 109.029,315.500 109.020,315.500 109.343 M252.753 109.875 C 252.550 110.112,252.512 110.254,252.640 110.297 C 252.956 110.402,252.861 110.733,252.420 111.065 C 252.192 111.236,252.048 111.442,252.098 111.524 C 252.148 111.605,252.442 111.427,252.751 111.128 C 253.264 110.631,253.288 110.564,253.031 110.365 C 252.768 110.160,252.770 110.131,253.052 109.922 C 253.218 109.799,253.287 109.658,253.206 109.608 C 253.126 109.558,252.922 109.678,252.753 109.875 M317.208 109.921 C 317.208 110.148,317.269 110.333,317.343 110.333 C 317.416 110.333,317.501 110.502,317.530 110.708 C 317.616 111.317,317.917 110.974,317.917 110.266 C 317.917 109.731,317.854 109.607,317.563 109.562 C 317.282 109.520,317.208 109.595,317.208 109.921 M316.679 110.458 C 316.686 110.527,316.718 110.723,316.751 110.893 C 316.845 111.391,316.660 111.667,316.232 111.667 C 315.813 111.667,315.673 111.259,316.042 111.110 C 316.203 111.045,316.198 110.989,316.020 110.865 C 315.894 110.776,315.842 110.621,315.905 110.519 C 316.033 110.312,316.659 110.263,316.679 110.458 M253.333 111.573 C 253.333 111.808,253.408 112.000,253.500 112.000 C 253.592 112.000,253.667 111.854,253.667 111.677 C 253.667 111.499,253.592 111.307,253.500 111.250 C 253.405 111.192,253.333 111.332,253.333 111.573 M314.958 112.292 C 314.999 112.413,314.886 112.500,314.690 112.500 C 314.326 112.500,314.107 112.282,314.288 112.101 C 314.456 111.933,314.879 112.054,314.958 112.292 M253.833 112.667 C 253.833 112.758,253.983 112.833,254.167 112.833 C 254.352 112.833,254.500 112.944,254.500 113.083 C 254.500 113.221,254.354 113.333,254.177 113.333 C 253.999 113.333,253.807 113.408,253.750 113.500 C 253.688 113.601,253.915 113.667,254.323 113.667 C 254.934 113.667,255.000 113.626,255.000 113.250 C 255.000 112.991,254.906 112.833,254.750 112.833 C 254.612 112.833,254.500 112.758,254.500 112.667 C 254.500 112.575,254.350 112.500,254.167 112.500 C 253.983 112.500,253.833 112.575,253.833 112.667 M315.000 113.657 C 315.000 113.835,314.925 114.027,314.833 114.083 C 314.739 114.142,314.667 114.002,314.667 113.760 C 314.667 113.525,314.742 113.333,314.833 113.333 C 314.925 113.333,315.000 113.479,315.000 113.657 M252.107 113.782 C 251.901 113.988,252.003 114.500,252.250 114.500 C 252.387 114.500,252.500 114.612,252.500 114.750 C 252.500 114.888,252.570 115.000,252.655 115.000 C 252.740 115.000,252.834 115.169,252.863 115.375 C 252.926 115.814,253.223 115.819,253.311 115.384 C 253.344 115.219,253.455 115.031,253.556 114.967 C 253.657 114.904,253.676 114.791,253.597 114.717 C 253.519 114.644,253.421 114.677,253.380 114.792 C 253.212 115.261,252.517 114.739,252.505 114.135 C 252.499 113.821,252.271 113.618,252.107 113.782 M258.283 114.440 C 258.148 114.574,257.507 113.956,257.609 113.791 C 257.660 113.709,257.851 113.802,258.034 113.998 C 258.217 114.195,258.329 114.393,258.283 114.440 M316.333 114.093 C 316.333 114.317,315.769 115.000,315.583 115.000 C 315.385 115.000,315.524 114.250,315.772 113.975 C 316.066 113.651,316.333 113.707,316.333 114.093 M255.679 114.712 C 255.659 114.912,255.430 114.873,255.358 114.658 C 255.322 114.548,255.382 114.488,255.492 114.525 C 255.602 114.562,255.686 114.646,255.679 114.712 M315.833 115.581 C 315.833 115.764,315.245 116.333,315.056 116.333 C 314.732 116.333,314.631 116.026,314.866 115.758 C 315.065 115.533,315.833 115.392,315.833 115.581 M314.105 116.087 C 314.049 116.234,313.923 116.306,313.826 116.246 C 313.706 116.171,313.713 116.062,313.849 115.898 C 314.091 115.606,314.246 115.720,314.105 116.087 M253.058 116.638 C 253.209 116.806,253.333 117.068,253.333 117.221 C 253.333 117.375,253.408 117.500,253.500 117.500 C 253.592 117.500,253.667 117.425,253.667 117.333 C 253.667 117.242,253.812 117.167,253.990 117.167 C 254.435 117.167,254.572 116.882,254.273 116.582 C 253.874 116.183,252.695 116.238,253.058 116.638 M314.637 117.971 C 314.671 118.204,314.602 118.333,314.442 118.333 C 314.163 118.333,314.009 118.024,314.128 117.701 C 314.246 117.381,314.575 117.556,314.637 117.971 M258.029 118.276 C 258.353 118.569,258.445 119.167,258.167 119.167 C 258.075 119.167,258.000 118.979,258.000 118.750 C 258.000 118.491,257.906 118.333,257.750 118.333 C 257.612 118.333,257.500 118.258,257.500 118.167 C 257.500 117.924,257.682 117.962,258.029 118.276 M257.775 119.948 C 257.648 120.074,257.167 119.573,257.167 119.314 C 257.167 119.198,257.323 119.272,257.517 119.480 C 257.709 119.686,257.825 119.897,257.775 119.948 M255.833 120.510 C 255.833 120.744,255.949 120.833,256.250 120.833 C 256.684 120.833,256.821 120.583,256.458 120.453 C 256.344 120.412,256.303 120.322,256.367 120.253 C 256.536 120.072,257.000 120.586,257.000 120.955 C 257.000 121.126,256.931 121.338,256.846 121.425 C 256.762 121.512,256.668 121.803,256.638 122.070 C 256.550 122.857,256.167 122.811,256.167 122.014 C 256.167 121.399,256.126 121.333,255.750 121.333 C 255.341 121.333,255.114 120.441,255.440 120.116 C 255.614 119.942,255.833 120.162,255.833 120.510 M253.750 120.667 C 253.692 120.761,253.832 120.833,254.073 120.833 C 254.308 120.833,254.500 120.758,254.500 120.667 C 254.500 120.575,254.354 120.500,254.177 120.500 C 253.999 120.500,253.807 120.575,253.750 120.667 M252.500 121.474 C 252.500 121.552,252.650 121.751,252.833 121.917 C 253.022 122.088,253.167 122.135,253.167 122.026 C 253.167 121.920,253.092 121.833,253.000 121.833 C 252.908 121.833,252.833 121.721,252.833 121.583 C 252.833 121.446,252.758 121.333,252.667 121.333 C 252.575 121.333,252.500 121.397,252.500 121.474 M253.697 122.208 C 253.726 122.415,253.825 122.583,253.917 122.583 C 254.008 122.583,254.107 122.415,254.137 122.208 C 254.173 121.950,254.105 121.833,253.917 121.833 C 253.729 121.833,253.660 121.950,253.697 122.208 M252.117 122.278 C 251.995 122.477,252.576 123.000,252.919 123.000 C 253.055 123.000,253.167 122.925,253.167 122.833 C 253.167 122.742,253.044 122.667,252.893 122.667 C 252.743 122.667,252.530 122.543,252.419 122.391 C 252.304 122.235,252.174 122.186,252.117 122.278 M257.500 122.848 C 257.500 123.342,257.175 123.628,256.845 123.424 C 256.737 123.357,256.730 123.212,256.825 123.034 C 256.908 122.878,257.018 122.614,257.070 122.448 C 257.209 122.003,257.500 122.275,257.500 122.848 M315.500 123.139 C 315.500 123.356,315.302 123.500,315.141 123.401 C 314.968 123.294,315.117 123.000,315.343 123.000 C 315.429 123.000,315.500 123.063,315.500 123.139 M252.500 123.917 C 252.500 124.277,252.567 124.347,252.875 124.303 C 253.121 124.268,253.250 124.135,253.250 123.917 C 253.250 123.698,253.121 123.565,252.875 123.530 C 252.567 123.486,252.500 123.556,252.500 123.917 M255.333 124.250 C 255.333 124.583,255.250 124.667,254.917 124.667 C 254.583 124.667,254.500 124.583,254.500 124.250 C 254.500 123.917,254.583 123.833,254.917 123.833 C 255.250 123.833,255.333 123.917,255.333 124.250 M257.758 124.631 C 257.698 124.691,257.588 124.642,257.513 124.521 C 257.309 124.191,256.667 124.648,256.667 125.123 C 256.667 125.511,256.901 125.629,257.083 125.333 C 257.204 125.138,257.500 125.110,257.500 125.293 C 257.500 125.591,256.795 125.873,256.632 125.640 C 256.509 125.466,256.456 125.462,256.390 125.625 C 256.254 125.959,255.833 125.865,255.833 125.500 C 255.833 125.317,255.908 125.167,256.000 125.167 C 256.240 125.167,256.205 124.708,255.958 124.620 C 255.837 124.577,255.812 124.484,255.898 124.398 C 255.984 124.312,256.077 124.337,256.120 124.458 C 256.238 124.789,256.561 124.702,256.903 124.246 L 257.219 123.826 257.543 124.174 C 257.721 124.365,257.818 124.571,257.758 124.631 M317.567 124.065 C 317.459 124.348,317.605 124.667,317.843 124.667 C 318.053 124.667,318.044 124.047,317.832 123.916 C 317.740 123.859,317.621 123.926,317.567 124.065 M315.300 124.309 C 315.473 124.419,315.466 124.487,315.265 124.654 C 315.127 124.768,314.944 124.819,314.858 124.765 C 314.772 124.712,314.657 124.785,314.602 124.928 C 314.474 125.261,314.167 125.077,314.167 124.668 C 314.167 124.477,314.312 124.329,314.542 124.284 C 314.748 124.245,314.954 124.203,315.000 124.192 C 315.046 124.181,315.181 124.233,315.300 124.309 M252.617 124.772 C 252.389 125.000,252.505 125.189,252.840 125.137 C 253.027 125.107,253.181 125.008,253.182 124.917 C 253.185 124.714,252.779 124.610,252.617 124.772 M247.208 125.948 C 247.369 125.990,247.631 125.990,247.792 125.948 C 247.952 125.906,247.821 125.872,247.500 125.872 C 247.179 125.872,247.048 125.906,247.208 125.948 M249.875 125.948 C 250.035 125.990,250.298 125.990,250.458 125.948 C 250.619 125.906,250.487 125.872,250.167 125.872 C 249.846 125.872,249.715 125.906,249.875 125.948 M313.458 125.948 C 313.298 125.990,313.035 125.990,312.875 125.948 C 312.715 125.906,312.846 125.872,313.167 125.872 C 313.487 125.872,313.619 125.906,313.458 125.948 M333.960 126.118 C 334.168 126.158,334.468 126.156,334.627 126.115 C 334.786 126.073,334.617 126.040,334.250 126.042 C 333.883 126.044,333.753 126.078,333.960 126.118 " stroke="none" fill="#c9e42c" fill-rule="evenodd"></path><path id="path3" d="M219.250 108.169 L 210.917 108.255 216.875 108.294 C 222.541 108.331,222.833 108.348,222.833 108.641 C 222.833 108.931,223.311 109.500,223.555 109.500 C 223.616 109.500,223.667 109.367,223.667 109.204 C 223.667 108.866,224.309 108.249,224.474 108.428 C 224.534 108.492,224.490 108.579,224.375 108.620 C 223.864 108.803,224.147 109.500,224.732 109.500 C 225.117 109.500,225.334 109.593,225.411 109.792 C 225.516 110.064,225.540 110.062,225.760 109.762 C 225.890 109.586,226.049 109.494,226.114 109.558 C 226.179 109.623,226.058 109.843,225.846 110.046 C 225.578 110.304,225.437 110.353,225.383 110.208 C 225.341 110.094,225.056 110.000,224.750 110.000 C 224.444 110.000,224.160 110.094,224.118 110.208 C 224.057 110.375,223.997 110.375,223.821 110.208 C 223.476 109.883,222.833 109.946,222.833 110.304 C 222.833 110.472,222.645 110.786,222.415 111.002 L 221.996 111.395 222.540 111.942 C 222.981 112.387,223.217 112.490,223.792 112.495 C 224.181 112.498,224.500 112.575,224.500 112.667 C 224.500 112.903,224.959 112.874,225.039 112.632 C 225.084 112.497,225.231 112.547,225.484 112.783 C 225.843 113.117,225.847 113.143,225.556 113.317 C 225.266 113.490,225.266 113.509,225.542 113.675 C 225.898 113.889,225.929 114.500,225.583 114.500 C 225.430 114.500,225.333 114.344,225.333 114.097 C 225.333 113.876,225.240 113.651,225.125 113.597 C 224.958 113.519,224.958 113.481,225.125 113.403 C 225.373 113.287,225.406 112.833,225.167 112.833 C 225.075 112.833,225.000 112.946,225.000 113.083 C 225.000 113.221,224.930 113.333,224.846 113.333 C 224.609 113.333,224.167 114.327,224.167 114.859 C 224.167 115.120,224.242 115.333,224.333 115.333 C 224.425 115.333,224.500 115.188,224.500 115.010 C 224.500 114.595,224.773 114.423,224.948 114.728 C 225.022 114.857,225.219 114.990,225.384 115.023 C 225.903 115.127,225.775 115.414,225.184 115.471 C 224.613 115.525,224.167 115.825,224.167 116.155 C 224.167 116.253,224.044 116.333,223.894 116.333 C 223.684 116.333,223.722 116.434,224.061 116.773 C 224.302 117.014,224.500 117.277,224.500 117.356 C 224.500 117.578,223.703 117.526,223.627 117.299 C 223.582 117.164,223.436 117.213,223.184 117.448 C 222.964 117.653,222.878 117.841,222.977 117.903 C 223.070 117.960,223.219 117.877,223.308 117.717 C 223.531 117.320,224.153 118.044,224.161 118.708 C 224.165 119.054,224.249 119.167,224.500 119.167 C 224.866 119.167,224.928 118.995,224.660 118.726 C 224.539 118.606,224.565 118.487,224.743 118.339 C 224.884 118.222,225.000 117.985,225.000 117.813 C 225.000 117.566,225.124 117.500,225.583 117.500 C 226.190 117.500,226.302 117.631,225.974 117.960 C 225.828 118.106,225.831 118.213,225.988 118.402 C 226.288 118.764,225.341 119.667,224.661 119.667 C 224.136 119.667,224.043 119.810,224.362 120.129 C 224.511 120.278,224.452 120.406,224.112 120.674 C 223.581 121.092,223.420 123.000,223.917 123.000 C 224.054 123.000,224.167 123.106,224.167 123.236 C 224.167 123.366,224.260 123.506,224.375 123.547 C 224.496 123.590,224.521 123.683,224.436 123.769 C 224.350 123.855,224.257 123.830,224.213 123.708 C 224.125 123.461,223.667 123.426,223.667 123.667 C 223.667 123.758,223.526 123.833,223.354 123.833 C 223.182 123.833,222.947 123.946,222.833 124.083 C 222.719 124.221,222.485 124.333,222.313 124.333 C 222.141 124.333,222.000 124.408,222.000 124.500 C 222.000 124.592,222.265 124.667,222.589 124.667 C 222.958 124.667,223.213 124.760,223.273 124.917 C 223.326 125.054,223.507 125.167,223.675 125.167 C 223.843 125.167,224.027 125.242,224.083 125.333 C 224.186 125.500,225.000 125.574,225.000 125.417 C 225.000 125.196,224.295 124.667,224.000 124.667 C 223.817 124.667,223.667 124.592,223.667 124.500 C 223.667 124.166,224.389 124.345,224.791 124.779 C 225.162 125.179,225.221 125.196,225.362 124.942 C 225.449 124.787,225.595 124.706,225.686 124.762 C 225.777 124.818,225.603 125.101,225.300 125.390 L 224.750 125.917 225.232 125.972 C 225.505 126.003,225.776 125.931,225.857 125.805 C 225.963 125.640,226.033 125.633,226.126 125.778 C 226.221 125.923,231.113 125.990,245.585 126.043 C 256.217 126.081,261.842 126.068,258.083 126.012 C 254.325 125.957,251.550 125.886,251.917 125.856 C 252.283 125.825,253.221 125.813,254.000 125.829 L 255.417 125.857 255.036 125.470 C 254.716 125.145,254.631 125.122,254.504 125.329 C 254.420 125.463,254.291 125.509,254.217 125.431 C 254.144 125.352,254.177 125.254,254.292 125.213 C 254.539 125.125,254.574 124.667,254.333 124.667 C 254.124 124.667,254.118 124.254,254.321 123.873 C 254.406 123.714,254.516 123.452,254.566 123.292 C 254.681 122.920,255.264 122.912,255.405 123.281 C 255.502 123.532,255.550 123.524,255.874 123.200 L 256.235 122.839 255.784 122.369 C 255.536 122.110,255.333 121.771,255.333 121.616 C 255.333 121.460,255.258 121.333,255.167 121.333 C 255.075 121.333,255.000 120.958,255.000 120.500 C 255.000 120.042,255.075 119.667,255.167 119.667 C 255.258 119.667,255.333 119.554,255.333 119.417 C 255.333 119.279,255.258 119.167,255.167 119.167 C 255.075 119.167,255.000 119.279,255.000 119.417 C 255.000 119.554,254.887 119.667,254.750 119.667 C 254.612 119.667,254.500 119.742,254.500 119.833 C 254.500 119.925,254.313 120.000,254.083 120.000 C 253.718 120.000,253.667 119.928,253.667 119.417 C 253.667 118.785,253.574 118.725,253.125 119.065 C 252.783 119.325,252.747 119.608,253.042 119.713 C 253.156 119.754,253.197 119.844,253.133 119.914 C 253.069 119.983,252.887 119.911,252.731 119.754 C 252.265 119.288,253.323 118.352,253.828 118.784 C 254.014 118.943,254.167 119.207,254.167 119.370 C 254.167 119.773,254.276 119.745,254.781 119.208 C 255.064 118.908,255.239 118.822,255.287 118.958 C 255.452 119.424,255.833 119.162,255.833 118.583 C 255.833 118.022,256.035 117.820,256.250 118.167 C 256.307 118.258,256.424 118.333,256.510 118.333 C 256.596 118.333,256.667 118.258,256.667 118.167 C 256.667 118.075,256.554 118.000,256.417 118.000 C 256.279 118.000,256.167 117.877,256.167 117.727 C 256.167 117.517,256.066 117.555,255.727 117.894 C 255.486 118.136,255.223 118.333,255.144 118.333 C 254.944 118.333,254.963 117.709,255.167 117.583 C 255.647 117.286,255.148 116.333,254.512 116.333 C 254.316 116.333,254.167 116.225,254.167 116.083 C 254.167 115.732,255.262 115.741,255.398 116.094 C 255.624 116.683,256.577 116.321,256.635 115.625 C 256.680 115.088,256.744 115.000,257.093 115.000 C 257.569 115.000,257.599 115.114,257.234 115.518 C 256.947 115.835,257.332 116.649,257.774 116.661 C 257.879 116.664,258.008 116.779,258.060 116.917 C 258.175 117.216,258.518 117.254,258.458 116.961 C 258.435 116.848,258.210 116.651,257.958 116.524 C 257.652 116.369,257.500 116.160,257.500 115.896 C 257.500 115.481,257.915 115.338,258.047 115.708 C 258.088 115.823,258.177 115.865,258.245 115.802 C 258.381 115.676,257.309 114.497,257.066 114.505 C 256.984 114.508,256.619 114.808,256.254 115.172 C 255.595 115.831,255.333 115.974,255.333 115.677 C 255.333 115.591,255.095 115.498,254.805 115.469 C 254.231 115.412,253.929 115.000,254.460 115.000 C 254.832 115.000,255.333 114.506,255.333 114.140 C 255.333 113.726,255.538 113.649,255.861 113.942 C 256.150 114.203,256.167 114.194,256.167 113.786 C 256.167 113.406,256.243 113.347,256.792 113.302 C 257.294 113.260,257.427 113.176,257.470 112.875 C 257.545 112.348,256.906 112.373,256.402 112.917 C 255.831 113.532,255.000 113.259,255.000 112.455 C 255.000 112.307,254.925 112.140,254.833 112.083 C 254.569 111.920,254.640 111.667,254.949 111.667 C 255.105 111.667,255.442 111.868,255.699 112.115 L 256.167 112.562 256.167 112.124 C 256.167 111.883,256.088 111.638,255.992 111.578 C 255.872 111.504,255.879 111.396,256.012 111.235 C 256.162 111.054,256.157 110.939,255.989 110.737 C 255.809 110.520,255.812 110.450,256.006 110.330 C 256.135 110.250,256.182 110.127,256.111 110.056 C 256.040 109.984,255.921 110.025,255.847 110.145 C 255.748 110.305,255.626 110.318,255.397 110.194 C 255.225 110.101,254.952 109.984,254.792 109.934 C 254.631 109.884,254.500 109.706,254.500 109.539 C 254.500 109.371,254.407 109.140,254.293 109.026 C 254.128 108.862,254.137 108.787,254.335 108.662 C 254.471 108.576,254.504 108.504,254.407 108.503 C 254.310 108.501,254.085 108.610,253.907 108.745 C 253.470 109.075,253.333 109.060,253.333 108.681 C 253.333 108.293,252.975 108.320,252.507 108.744 C 252.319 108.914,252.117 109.006,252.058 108.947 C 252.000 108.889,252.076 108.794,252.226 108.736 C 253.084 108.407,251.859 108.330,245.208 108.293 C 241.138 108.270,245.132 108.213,254.250 108.163 L 270.583 108.073 249.083 108.078 C 237.258 108.081,223.833 108.122,219.250 108.169 M237.458 108.282 C 237.298 108.323,237.035 108.323,236.875 108.282 C 236.715 108.240,236.846 108.205,237.167 108.205 C 237.487 108.205,237.619 108.240,237.458 108.282 M255.207 108.597 C 254.907 108.919,254.949 109.000,255.417 109.000 C 255.662 109.000,255.833 108.904,255.833 108.768 C 255.833 108.438,255.453 108.334,255.207 108.597 M257.167 108.757 C 257.167 108.807,257.317 109.008,257.500 109.205 C 257.871 109.603,257.948 109.415,257.601 108.958 C 257.386 108.675,257.167 108.573,257.167 108.757 M222.111 109.111 C 221.884 109.339,222.012 109.521,222.362 109.470 C 222.820 109.403,222.974 109.000,222.542 109.000 C 222.366 109.000,222.172 109.050,222.111 109.111 M254.134 109.836 C 254.067 110.949,253.763 110.977,253.700 109.875 C 253.659 109.162,253.699 109.000,253.917 109.000 C 254.133 109.000,254.175 109.159,254.134 109.836 M253.052 109.922 C 252.770 110.131,252.768 110.160,253.031 110.365 C 253.288 110.564,253.264 110.631,252.751 111.128 C 252.442 111.427,252.148 111.605,252.098 111.524 C 252.048 111.442,252.192 111.236,252.420 111.065 C 252.861 110.733,252.956 110.402,252.640 110.297 C 252.512 110.254,252.550 110.112,252.753 109.875 C 252.922 109.678,253.126 109.558,253.206 109.608 C 253.287 109.658,253.218 109.799,253.052 109.922 M225.333 110.750 C 225.333 111.009,225.428 111.167,225.583 111.167 C 225.721 111.167,225.833 111.092,225.833 111.000 C 225.833 110.908,226.025 110.833,226.260 110.833 C 226.502 110.833,226.642 110.905,226.583 111.000 C 226.527 111.092,226.369 111.167,226.232 111.167 C 226.096 111.167,225.810 111.354,225.598 111.583 C 225.175 112.039,224.528 112.124,223.998 111.793 C 223.731 111.627,223.595 111.631,223.299 111.816 C 223.038 111.979,222.914 111.991,222.869 111.856 C 222.834 111.752,222.699 111.667,222.569 111.667 C 222.440 111.667,222.333 111.554,222.333 111.417 C 222.333 111.267,222.487 111.167,222.717 111.167 C 222.927 111.167,223.193 111.074,223.307 110.960 C 223.472 110.795,223.543 110.799,223.655 110.981 C 223.839 111.279,224.167 111.071,224.167 110.657 C 224.167 110.398,224.284 110.333,224.750 110.333 C 225.261 110.333,225.333 110.385,225.333 110.750 M224.530 111.208 C 224.564 111.449,224.717 111.602,224.958 111.637 C 225.406 111.700,225.453 111.378,225.042 111.065 C 224.617 110.743,224.470 110.784,224.530 111.208 M253.667 111.677 C 253.667 111.854,253.592 112.000,253.500 112.000 C 253.408 112.000,253.333 111.808,253.333 111.573 C 253.333 111.332,253.405 111.192,253.500 111.250 C 253.592 111.307,253.667 111.499,253.667 111.677 M221.167 111.757 C 221.167 111.966,221.806 112.512,221.891 112.376 C 221.941 112.293,221.836 112.100,221.656 111.946 C 221.320 111.658,221.167 111.599,221.167 111.757 M254.500 112.667 C 254.500 112.758,254.612 112.833,254.750 112.833 C 254.906 112.833,255.000 112.991,255.000 113.250 C 255.000 113.626,254.934 113.667,254.323 113.667 C 253.915 113.667,253.688 113.601,253.750 113.500 C 253.807 113.408,253.999 113.333,254.177 113.333 C 254.354 113.333,254.500 113.221,254.500 113.083 C 254.500 112.944,254.352 112.833,254.167 112.833 C 253.983 112.833,253.833 112.758,253.833 112.667 C 253.833 112.575,253.983 112.500,254.167 112.500 C 254.350 112.500,254.500 112.575,254.500 112.667 M221.618 112.938 C 221.476 113.079,222.522 114.173,222.696 114.065 C 222.771 114.019,222.833 113.835,222.833 113.657 C 222.833 113.448,222.948 113.333,223.157 113.333 C 223.590 113.333,223.760 113.025,223.403 112.888 C 223.222 112.819,223.033 112.895,222.882 113.098 C 222.659 113.400,222.635 113.401,222.430 113.125 C 222.213 112.833,221.814 112.741,221.618 112.938 M223.450 113.772 C 223.216 114.006,223.343 114.167,223.764 114.167 C 224.034 114.167,224.169 114.089,224.125 113.958 C 224.045 113.717,223.622 113.601,223.450 113.772 M252.505 114.135 C 252.517 114.739,253.212 115.261,253.380 114.792 C 253.421 114.677,253.519 114.644,253.597 114.717 C 253.676 114.791,253.657 114.904,253.556 114.967 C 253.455 115.031,253.344 115.219,253.311 115.384 C 253.223 115.819,252.926 115.814,252.863 115.375 C 252.834 115.169,252.740 115.000,252.655 115.000 C 252.570 115.000,252.500 114.888,252.500 114.750 C 252.500 114.612,252.387 114.500,252.250 114.500 C 252.003 114.500,251.901 113.988,252.107 113.782 C 252.271 113.618,252.499 113.821,252.505 114.135 M257.609 113.791 C 257.507 113.956,258.148 114.574,258.283 114.440 C 258.329 114.393,258.217 114.195,258.034 113.998 C 257.851 113.802,257.660 113.709,257.609 113.791 M255.358 114.658 C 255.430 114.873,255.659 114.912,255.679 114.712 C 255.686 114.646,255.602 114.562,255.492 114.525 C 255.382 114.488,255.322 114.548,255.358 114.658 M223.333 115.250 C 223.333 115.431,223.148 115.500,222.667 115.500 C 222.111 115.500,222.000 115.556,222.000 115.833 C 222.000 116.193,222.244 116.280,222.426 115.985 C 222.506 115.855,222.588 115.855,222.719 115.985 C 223.001 116.268,223.122 116.207,223.404 115.641 C 223.714 115.021,223.717 115.000,223.500 115.000 C 223.408 115.000,223.333 115.112,223.333 115.250 M225.333 116.417 C 225.333 116.737,225.258 117.000,225.167 117.000 C 225.075 117.000,225.000 116.892,225.000 116.760 C 225.000 116.416,224.655 116.250,224.490 116.515 C 224.414 116.639,224.291 116.676,224.217 116.597 C 224.144 116.519,224.177 116.421,224.292 116.380 C 224.406 116.339,224.500 116.199,224.500 116.069 C 224.500 115.929,224.668 115.833,224.917 115.833 C 225.282 115.833,225.333 115.906,225.333 116.417 M254.273 116.582 C 254.572 116.882,254.435 117.167,253.990 117.167 C 253.812 117.167,253.667 117.242,253.667 117.333 C 253.667 117.425,253.592 117.500,253.500 117.500 C 253.408 117.500,253.333 117.375,253.333 117.221 C 253.333 117.068,253.209 116.806,253.058 116.638 C 252.695 116.238,253.874 116.183,254.273 116.582 M257.500 118.167 C 257.500 118.258,257.612 118.333,257.750 118.333 C 257.906 118.333,258.000 118.491,258.000 118.750 C 258.000 118.979,258.075 119.167,258.167 119.167 C 258.445 119.167,258.353 118.569,258.029 118.276 C 257.682 117.962,257.500 117.924,257.500 118.167 M225.449 118.440 C 225.316 118.573,225.466 118.833,225.677 118.833 C 225.763 118.833,225.833 118.721,225.833 118.583 C 225.833 118.326,225.637 118.252,225.449 118.440 M222.916 119.335 C 222.789 119.539,223.248 119.739,223.495 119.587 C 223.592 119.526,223.629 119.407,223.576 119.322 C 223.449 119.116,223.046 119.124,222.916 119.335 M257.167 119.314 C 257.167 119.573,257.648 120.074,257.775 119.948 C 257.825 119.897,257.709 119.686,257.517 119.480 C 257.323 119.272,257.167 119.198,257.167 119.314 M223.782 120.107 C 223.649 120.240,223.800 120.500,224.010 120.500 C 224.096 120.500,224.167 120.388,224.167 120.250 C 224.167 119.992,223.970 119.919,223.782 120.107 M255.440 120.116 C 255.114 120.441,255.341 121.333,255.750 121.333 C 256.126 121.333,256.167 121.399,256.167 122.014 C 256.167 122.811,256.550 122.857,256.638 122.070 C 256.668 121.803,256.762 121.512,256.846 121.425 C 256.931 121.338,257.000 121.126,257.000 120.955 C 257.000 120.586,256.536 120.072,256.367 120.253 C 256.303 120.322,256.344 120.412,256.458 120.453 C 256.821 120.583,256.684 120.833,256.250 120.833 C 255.949 120.833,255.833 120.744,255.833 120.510 C 255.833 120.162,255.614 119.942,255.440 120.116 M225.571 120.487 C 225.849 120.793,225.844 120.809,225.472 120.862 C 225.172 120.904,225.072 121.037,225.032 121.446 C 225.004 121.737,224.871 122.067,224.736 122.178 C 224.522 122.356,224.527 122.420,224.772 122.691 C 225.090 123.042,225.768 123.104,225.880 122.792 C 225.921 122.677,226.008 122.632,226.072 122.692 C 226.228 122.836,225.654 123.500,225.374 123.500 C 225.254 123.500,225.113 123.388,225.060 123.250 C 225.008 123.112,224.785 123.000,224.566 123.000 C 223.966 123.000,223.978 121.629,224.583 121.069 C 224.813 120.856,225.000 120.567,225.000 120.425 C 225.000 120.076,225.221 120.100,225.571 120.487 M221.567 120.733 C 221.506 120.892,221.538 121.105,221.639 121.206 C 221.772 121.339,221.853 121.310,221.933 121.100 C 221.994 120.941,221.962 120.728,221.861 120.628 C 221.728 120.494,221.647 120.523,221.567 120.733 M254.500 120.667 C 254.500 120.758,254.308 120.833,254.073 120.833 C 253.832 120.833,253.692 120.761,253.750 120.667 C 253.807 120.575,253.999 120.500,254.177 120.500 C 254.354 120.500,254.500 120.575,254.500 120.667 M226.167 121.750 C 226.167 121.979,226.092 122.167,226.000 122.167 C 225.908 122.167,225.833 121.979,225.833 121.750 C 225.833 121.521,225.908 121.333,226.000 121.333 C 226.092 121.333,226.167 121.521,226.167 121.750 M252.833 121.583 C 252.833 121.721,252.908 121.833,253.000 121.833 C 253.092 121.833,253.167 121.920,253.167 122.026 C 253.167 122.135,253.022 122.088,252.833 121.917 C 252.473 121.591,252.400 121.333,252.667 121.333 C 252.758 121.333,252.833 121.446,252.833 121.583 M254.137 122.208 C 254.107 122.415,254.008 122.583,253.917 122.583 C 253.825 122.583,253.726 122.415,253.697 122.208 C 253.660 121.950,253.729 121.833,253.917 121.833 C 254.105 121.833,254.173 121.950,254.137 122.208 M222.746 122.504 C 222.460 122.820,222.460 122.846,222.746 123.163 C 223.120 123.575,223.333 123.455,223.333 122.833 C 223.333 122.211,223.120 122.091,222.746 122.504 M252.893 122.667 C 253.044 122.667,253.167 122.742,253.167 122.833 C 253.167 122.925,253.055 123.000,252.919 123.000 C 252.576 123.000,251.995 122.477,252.117 122.278 C 252.174 122.186,252.304 122.235,252.419 122.391 C 252.530 122.543,252.743 122.667,252.893 122.667 M257.070 122.448 C 257.018 122.614,256.908 122.878,256.825 123.034 C 256.730 123.212,256.737 123.357,256.845 123.424 C 257.175 123.628,257.500 123.342,257.500 122.848 C 257.500 122.275,257.209 122.003,257.070 122.448 M253.250 123.917 C 253.250 124.135,253.121 124.268,252.875 124.303 C 252.567 124.347,252.500 124.277,252.500 123.917 C 252.500 123.556,252.567 123.486,252.875 123.530 C 253.121 123.565,253.250 123.698,253.250 123.917 M254.500 124.250 C 254.500 124.583,254.583 124.667,254.917 124.667 C 255.250 124.667,255.333 124.583,255.333 124.250 C 255.333 123.917,255.250 123.833,254.917 123.833 C 254.583 123.833,254.500 123.917,254.500 124.250 M256.903 124.246 C 256.561 124.702,256.238 124.789,256.120 124.458 C 256.077 124.337,255.984 124.312,255.898 124.398 C 255.812 124.484,255.837 124.577,255.958 124.620 C 256.205 124.708,256.240 125.167,256.000 125.167 C 255.908 125.167,255.833 125.317,255.833 125.500 C 255.833 125.865,256.254 125.959,256.390 125.625 C 256.456 125.462,256.509 125.466,256.632 125.640 C 256.795 125.873,257.500 125.591,257.500 125.293 C 257.500 125.110,257.204 125.138,257.083 125.333 C 256.901 125.629,256.667 125.511,256.667 125.123 C 256.667 124.648,257.309 124.191,257.513 124.521 C 257.588 124.642,257.698 124.691,257.758 124.631 C 257.818 124.571,257.721 124.365,257.543 124.174 L 257.219 123.826 256.903 124.246 M253.182 124.917 C 253.181 125.008,253.027 125.107,252.840 125.137 C 252.505 125.189,252.389 125.000,252.617 124.772 C 252.779 124.610,253.185 124.714,253.182 124.917 M222.005 125.292 C 222.031 125.907,222.833 126.189,222.833 125.583 C 222.833 125.250,222.750 125.167,222.417 125.167 C 222.188 125.167,222.002 125.223,222.005 125.292 M223.778 125.611 C 223.586 125.803,223.656 126.000,223.917 126.000 C 224.054 126.000,224.167 125.888,224.167 125.750 C 224.167 125.490,223.970 125.419,223.778 125.611 M247.792 125.948 C 247.631 125.990,247.369 125.990,247.208 125.948 C 247.048 125.906,247.179 125.872,247.500 125.872 C 247.821 125.872,247.952 125.906,247.792 125.948 M250.458 125.948 C 250.298 125.990,250.035 125.990,249.875 125.948 C 249.715 125.906,249.846 125.872,250.167 125.872 C 250.487 125.872,250.619 125.906,250.458 125.948 M268.042 126.119 C 268.294 126.158,268.706 126.158,268.958 126.119 C 269.210 126.081,269.004 126.050,268.500 126.050 C 267.996 126.050,267.790 126.081,268.042 126.119 " stroke="none" fill="#c4dc2c" fill-rule="evenodd"></path><path id="path4" d="M0.000 117.083 L 0.000 126.167 76.292 126.133 C 118.252 126.114,151.954 126.073,151.185 126.042 C 149.933 125.992,149.753 125.943,149.465 125.576 C 149.113 125.129,148.683 125.050,148.360 125.374 C 148.195 125.538,148.122 125.531,148.003 125.339 C 147.875 125.131,147.808 125.138,147.534 125.386 C 147.104 125.775,146.530 125.594,146.899 125.186 C 147.035 125.036,147.170 124.507,147.198 124.011 C 147.262 122.895,147.583 122.699,147.583 123.776 C 147.583 124.575,147.929 124.993,148.029 124.314 C 148.059 124.110,148.179 123.911,148.297 123.872 C 148.414 123.834,148.489 123.903,148.464 124.026 C 148.370 124.474,149.227 124.284,149.334 123.833 C 149.397 123.566,149.549 123.417,149.756 123.416 C 150.269 123.416,150.262 122.861,149.746 122.665 C 149.501 122.572,149.262 122.347,149.214 122.165 C 149.126 121.826,148.833 121.699,148.833 122.000 C 148.833 122.270,148.499 122.190,148.384 121.893 C 148.320 121.725,148.398 121.531,148.586 121.394 C 148.754 121.271,148.842 121.120,148.781 121.058 C 148.609 120.887,148.000 121.512,148.000 121.859 C 148.000 122.079,147.877 122.167,147.566 122.167 C 147.248 122.167,147.157 122.234,147.227 122.417 C 147.284 122.566,147.228 122.667,147.088 122.667 C 146.677 122.667,146.681 122.420,147.097 122.020 C 147.318 121.806,147.500 121.493,147.500 121.324 C 147.500 121.155,147.622 120.948,147.771 120.865 C 147.976 120.750,147.992 120.681,147.836 120.585 C 147.721 120.514,147.572 120.550,147.499 120.668 C 147.402 120.826,147.248 120.767,146.894 120.440 C 146.531 120.103,146.486 120.000,146.702 120.000 C 146.857 120.000,147.062 120.131,147.158 120.292 C 147.325 120.569,147.342 120.569,147.508 120.292 C 147.605 120.131,147.830 120.000,148.008 120.000 C 148.187 120.000,148.333 119.925,148.333 119.833 C 148.333 119.742,148.209 119.667,148.058 119.667 C 147.801 119.667,147.801 119.645,148.058 119.362 C 148.209 119.194,148.333 118.864,148.333 118.627 C 148.333 118.300,148.403 118.216,148.625 118.274 C 148.852 118.334,148.913 118.520,148.902 119.119 C 148.888 119.893,149.235 120.505,149.616 120.378 C 149.714 120.345,149.919 120.443,150.072 120.596 C 150.224 120.748,150.402 120.816,150.466 120.747 C 150.531 120.678,150.490 120.588,150.375 120.547 C 150.128 120.458,150.093 120.000,150.333 120.000 C 150.425 120.000,150.500 119.925,150.500 119.834 C 150.500 119.604,149.835 119.728,149.674 119.988 C 149.461 120.332,149.250 119.860,149.250 119.042 C 149.250 118.418,149.295 118.333,149.625 118.333 C 149.831 118.333,150.000 118.258,150.000 118.167 C 150.000 118.075,149.696 118.000,149.323 118.000 C 148.948 118.000,148.690 117.931,148.743 117.845 C 148.796 117.760,148.767 117.645,148.680 117.591 C 148.592 117.537,148.442 117.626,148.347 117.788 C 148.202 118.034,148.147 118.044,148.018 117.848 C 147.758 117.451,148.003 117.167,148.606 117.167 C 149.223 117.167,149.524 116.791,149.182 116.449 C 149.032 116.299,148.951 116.309,148.837 116.495 C 148.709 116.701,148.635 116.690,148.340 116.422 C 148.103 116.208,148.046 116.054,148.163 115.937 C 148.257 115.843,148.333 115.581,148.333 115.355 C 148.333 115.128,148.463 114.800,148.622 114.624 C 148.895 114.322,148.894 114.297,148.607 114.137 C 148.319 113.976,148.321 113.953,148.646 113.651 C 149.084 113.242,149.139 113.249,149.585 113.768 C 149.790 114.007,150.004 114.129,150.059 114.039 C 150.115 113.949,149.974 113.736,149.747 113.565 C 149.331 113.253,149.190 112.833,149.500 112.833 C 149.592 112.833,149.667 112.758,149.667 112.667 C 149.667 112.449,148.551 112.449,148.417 112.667 C 148.187 113.039,147.500 112.851,147.500 112.417 C 147.500 111.950,147.693 111.880,147.991 112.239 C 148.161 112.444,148.235 112.432,148.511 112.156 C 148.957 111.710,148.926 111.667,148.167 111.667 C 147.507 111.667,147.266 111.412,147.750 111.227 C 147.887 111.174,148.000 110.952,148.000 110.732 C 148.000 110.227,148.292 110.208,148.363 110.708 C 148.402 110.977,148.547 111.098,148.875 111.136 C 149.127 111.165,149.333 111.250,149.333 111.325 C 149.333 111.630,149.974 111.610,150.243 111.297 C 150.590 110.891,150.451 110.692,150.079 111.063 C 149.704 111.439,149.676 111.428,148.775 110.564 C 148.198 110.011,148.023 109.744,148.153 109.614 C 148.282 109.484,148.333 109.513,148.333 109.717 C 148.333 110.017,148.585 110.101,148.738 109.852 C 148.789 109.771,148.719 109.612,148.583 109.500 C 148.280 109.248,148.409 109.000,148.843 109.000 C 149.359 109.000,149.218 108.764,148.583 108.566 C 148.056 108.401,147.712 108.536,148.208 108.713 C 148.323 108.754,148.360 108.849,148.290 108.923 C 148.220 108.998,148.061 108.920,147.937 108.749 C 147.660 108.370,146.834 108.232,146.641 108.532 C 146.535 108.696,146.468 108.701,146.373 108.554 C 146.303 108.447,146.022 108.368,145.748 108.379 C 144.075 108.448,143.294 108.267,144.833 108.167 C 145.704 108.110,113.473 108.049,73.208 108.032 L 0.000 108.000 0.000 117.083 M149.333 108.989 C 149.333 109.398,149.392 109.444,149.917 109.444 C 150.541 109.444,150.622 109.355,150.293 109.026 C 150.129 108.863,150.129 108.793,150.291 108.693 C 150.411 108.619,150.255 108.559,149.915 108.549 C 149.388 108.535,149.333 108.576,149.333 108.989 M146.667 109.250 C 146.667 109.388,146.567 109.500,146.444 109.500 C 146.322 109.500,146.222 109.388,146.222 109.250 C 146.222 109.112,146.322 109.000,146.444 109.000 C 146.567 109.000,146.667 109.112,146.667 109.250 M149.525 110.267 C 149.221 110.611,149.417 110.774,149.742 110.448 C 149.884 110.307,150.000 110.148,150.000 110.095 C 150.000 109.920,149.752 110.010,149.525 110.267 M146.333 111.000 C 146.333 111.092,146.221 111.167,146.083 111.167 C 145.946 111.167,145.833 111.092,145.833 111.000 C 145.833 110.908,145.946 110.833,146.083 110.833 C 146.221 110.833,146.333 110.908,146.333 111.000 M148.292 113.542 C 148.253 113.656,148.122 113.750,148.000 113.750 C 147.878 113.750,147.747 113.656,147.708 113.542 C 147.667 113.418,147.785 113.333,148.000 113.333 C 148.215 113.333,148.333 113.418,148.292 113.542 M146.292 114.097 C 146.133 114.256,145.814 113.999,145.933 113.807 C 146.003 113.693,146.096 113.696,146.216 113.816 C 146.314 113.914,146.348 114.041,146.292 114.097 M147.167 114.177 C 147.167 114.524,146.921 114.611,146.745 114.325 C 146.594 114.081,146.795 113.623,146.999 113.749 C 147.091 113.806,147.167 113.999,147.167 114.177 M148.833 115.347 C 148.833 116.304,149.211 116.450,149.302 115.529 C 149.349 115.060,149.667 114.744,149.667 115.167 C 149.667 115.258,149.787 115.333,149.934 115.333 C 150.146 115.333,150.120 115.247,149.809 114.920 C 149.147 114.221,148.833 114.359,148.833 115.347 M146.208 116.083 C 146.147 116.329,145.623 116.286,145.537 116.028 C 145.486 115.875,145.587 115.823,145.856 115.861 C 146.073 115.892,146.231 115.992,146.208 116.083 M147.500 116.112 C 147.500 116.265,147.621 116.524,147.769 116.688 C 148.012 116.956,148.013 117.011,147.781 117.243 C 147.489 117.535,147.167 117.582,147.167 117.333 C 147.167 117.242,147.054 117.167,146.917 117.167 C 146.581 117.167,146.601 116.737,146.958 116.245 C 147.302 115.773,147.500 115.724,147.500 116.112 M149.776 116.791 C 149.674 116.956,150.315 117.574,150.449 117.440 C 150.496 117.393,150.384 117.195,150.201 116.998 C 150.018 116.802,149.827 116.709,149.776 116.791 M147.393 119.375 L 147.691 119.917 147.360 119.542 C 146.980 119.110,146.667 119.054,146.667 119.417 C 146.667 119.554,146.592 119.667,146.500 119.667 C 146.258 119.667,146.295 119.485,146.609 119.138 C 146.981 118.727,147.047 118.747,147.393 119.375 M148.600 120.123 C 148.411 120.311,148.501 120.429,148.833 120.429 C 149.017 120.429,149.167 120.378,149.167 120.315 C 149.167 120.155,148.719 120.003,148.600 120.123 M149.667 121.333 C 149.667 121.519,149.778 121.667,149.917 121.667 C 150.056 121.667,150.167 121.519,150.167 121.333 C 150.167 121.148,150.056 121.000,149.917 121.000 C 149.778 121.000,149.667 121.148,149.667 121.333 M148.809 123.279 C 148.561 123.578,148.337 123.285,148.341 122.667 L 148.344 122.250 148.675 122.647 C 148.934 122.958,148.963 123.094,148.809 123.279 M146.250 124.500 C 146.308 124.595,146.168 124.667,145.927 124.667 C 145.692 124.667,145.500 124.592,145.500 124.500 C 145.500 124.408,145.646 124.333,145.823 124.333 C 146.001 124.333,146.193 124.408,146.250 124.500 M149.293 125.792 C 149.337 125.928,149.184 126.000,148.847 126.000 C 148.352 126.000,148.204 125.852,148.451 125.604 C 148.630 125.425,149.215 125.555,149.293 125.792 " stroke="none" fill="#abcc32" fill-rule="evenodd"></path></g></svg>